<?xml version="1.0"?>
<svg xmlns="http://www.w3.org/2000/svg" id="Gallery_Blizzard" viewBox="0 0 100 100">
  <defs>
    <style>.cls-1{fill:#fff;}</style>
  </defs>
  <title>Artboard 1</title>
  <path class="cls-1" d="M22,48.16a11.77,11.77,0,0,1-5-1.75c-.31-.21-.75.07-.44.3a11.21,11.21,0,0,0,5.45,1.92C22.32,48.68,22.35,48.21,22,48.16Z"/>
  <path class="cls-1" d="M35.41,68.75c-1.42-.45-2.82-1-4.24-1.45a.24.24,0,0,0-.13.46c1.4.49,2.81,1,4.23,1.45A.24.24,0,0,0,35.41,68.75Z"/>
  <path class="cls-1" d="M37.7,67.72c-2.81-.67-5.62-1.4-8.41-2.07-.29-.07-.42.38-.15.46,2.8.72,5.6,1.47,8.43,2.09A.25.25,0,0,0,37.7,67.72Z"/>
  <path class="cls-1" d="M44.38,70.79c-.28-.08-.39.36-.11.45S44.66,70.88,44.38,70.79Z"/>
  <path class="cls-1" d="M53.38,23.83a2.38,2.38,0,0,0,1,.08.24.24,0,0,0,0-.48c-.31,0-.59-.06-.9-.08A.24.24,0,0,0,53.38,23.83Z"/>
  <path class="cls-1" d="M87.54,62a5.15,5.15,0,0,0-1.63-1.19c-.15-.07-.21,0-.31.08-.18-.1-.36-.13-.47.08A13,13,0,0,0,84,59.87c-.12-.1-.25-.26-.36-.36a.48.48,0,0,0-.31-.15,44.3,44.3,0,0,0-9.56-4.6c1.8-.08,3.58.06,5.36-.17,0,.18,0,.36-.06.53s.37.49.52.23.06-.51.14-.77c.27.08.54.23.79.29s.36-.08.33-.31c.09,0,.13,0,.22,0s.23.15.35.2l-.23,0c-.34.12-.2.49.13.49a9.45,9.45,0,0,0,1.39-.18c.24,0,.21-.29.06-.44a.32.32,0,0,0-.19-.44s-.1,0-.13,0-.13,0-.12-.1.16-.11.21-.15.07,0,.1-.06,0,0,.07,0c.32-.16.18-.47-.13-.5a4.25,4.25,0,0,0-.71.06s-.06,0,0,0,.06-.33-.14-.41a4.41,4.41,0,0,0-1.32-.33h-.06l0,0h0a.2.2,0,0,0-.13.2c0,.06,0,.06,0,.11-.25,0-.49-.13-.74-.18s-.49.28-.16.44a5.39,5.39,0,0,0,1.44.33.33.33,0,0,0,.26.34v0l.15,0h.08l.17,0s-.15,0-.18,0H79.7a13.26,13.26,0,0,1-1.51-.75c-.35-.18-.62.08-.33.36a4.28,4.28,0,0,0,.77.47c-2.09.25-4.25.13-6.36.2a31.67,31.67,0,0,0-12.51-1,17.84,17.84,0,0,0-4.47,1.27c-.34,0-.69.07-1,.13,0-.11-.08-.16-.23-.16-.41,0-.81,0-1.22,0,.16-.14.31-.31.49-.45.5-.41,1-.8,1.53-1.2.33-.09.67-.09,1-.19s.31-.39,0-.44h-.1A24.43,24.43,0,0,1,59,50.25a32.23,32.23,0,0,1,6.78-2.48,33.44,33.44,0,0,1,6-.87l1.88,0c.1.08.23.23.33.3s.34.08.5-.07h.12a.24.24,0,0,0,.14.19,4.24,4.24,0,0,1,1.49,1.3c.18.25.57.07.42-.21a4.09,4.09,0,0,0-1.58-1.48c.36,0,.7.09,1,.16a.31.31,0,0,0,.07.34s.08,0,.08.08.07.25.23.28,0,0,.07,0a2.28,2.28,0,0,1,.26,1.31c0,.32.41.29.47,0a2.25,2.25,0,0,0-.13-1.28l.21,0A2.08,2.08,0,0,1,78.06,49c.06.31.4.33.47,0s-.07-.4-.1-.62c0,0,0,0,0,0A1.71,1.71,0,0,1,79,49.61c.06.33.42.31.47,0a2.1,2.1,0,0,0-.08-.72,2.72,2.72,0,0,1,.33.57c.06.18,0,.33.08.47s.36.21.47,0a6.67,6.67,0,0,1-.06.75c0,.24.16.36.39.24a.23.23,0,0,0,.26-.11A1.29,1.29,0,0,0,81,50.2l0,0c.2.24.54.06.42-.23a5.17,5.17,0,0,0-1-1.49.24.24,0,0,0-.29,0,3.28,3.28,0,0,0-.59-.52.25.25,0,0,0-.31.07,8.24,8.24,0,0,0-1.06-.72l-.1-.07s-.06,0-.1-.05l-.72-.25c.56.05,1.14.1,1.67.19a.55.55,0,0,0,.13.18c.6.42,1.32,1.11,1.86,1.53.38.3.64.08.49-.24a1.74,1.74,0,0,1,.15.13c.28.15.72.1.46-.3-.17-.22-.49-.42-.67-.65,0,0,0,0,.08,0a10.63,10.63,0,0,1,1,.44c-.17,0-.41.05-.33.25a2.25,2.25,0,0,0,.56.91.29.29,0,0,0,.49-.06,2.33,2.33,0,0,1,.7,1.07c.11.33.46.27.5,0,0-.1,0-.2,0-.3l.16-.08a3.63,3.63,0,0,0,1,.54c.32.08.5-.25.21-.41a4.9,4.9,0,0,1-1.06-.64c.11-.14.15-.29,0-.42l-1-.61h0a6,6,0,0,0-.79-.52,6.27,6.27,0,0,1,1,.33c.31.11.53-.25.18-.43a6.23,6.23,0,0,0-2.64-.52,22.83,22.83,0,0,0-2.89-.68c-.8-.14-1.54-.17-2.32-.23-.07,0-.12-.05-.18-.05s-.1,0-.17,0c0-.16,0-.24-.18-.32.27-.16.28-.44-.09-.49s-.87,0-1.26-.05c.18-.16.23-.38-.07-.46s-.63-.1-.93-.19c0-.2-.06-.31-.29-.33a11.57,11.57,0,0,1-1.31-.11.35.35,0,0,0-.29-.3c0-.16-.12-.26-.31-.26a9.87,9.87,0,0,0-2.53.28,32.75,32.75,0,0,0-9.54.1c-5.39,1.14-8.69,3.72-12.46,7.48-.2.08-.39.21-.38.45-.29.36-.55.74-.81,1.11A24.27,24.27,0,0,0,43,54.72c-.29-.24-.57-.14-.88.15s.24.31.44.21a4.61,4.61,0,0,0-.39.36c-.18.23,0,.35.21.38l-.05.93a5.56,5.56,0,0,0-.42.54.18.18,0,0,0,0,.24l-.33-.05a7.28,7.28,0,0,0-.39-3.39c-.44-1.28-1-2.53-1.47-3.79-.11-.26-.55-.15-.49.13a17.06,17.06,0,0,0,.64,1.68c-.54-.67-1.06-1.34-1.59-2,0-.22-.11-.35-.36-.28-.5.13-1,.33-1.55.49a3.82,3.82,0,0,0-1.42-.95A4.32,4.32,0,0,1,37,48.76c.25,0,.28-.19.17-.37a18.55,18.55,0,0,1,2-.3c.29,0,.19-.47-.12-.44a24,24,0,0,0-5.26,1.24c-.11,0-.16,0-.28.1a1.25,1.25,0,0,1-.37.15,9.77,9.77,0,0,0-1.41.28s0-.08-.06-.1c-.23-.18-.51-.08-.47.23,0,0,0,0,0,.05-.2.11-.43.18-.62.29a5.77,5.77,0,0,1,2.84-1.71c.31-.12.15-.48-.16-.4-1.54.46-2.91,1.13-3.52,2.68-.09.26.38.28.54.17A7,7,0,0,1,31.36,50c.09.15.15.23.31.25l.27.4a7.44,7.44,0,0,0-1,1.38.17.17,0,0,0,0,.08,22.12,22.12,0,0,0-3.29-3.2c.17-.23.36-.44.54-.64,0,.13-.1.24-.08.39a.32.32,0,0,0,.6.08,6.36,6.36,0,0,0,.25-.88c.85-.23,1.71-.44,2.58-.65l-.08,0c-.3.13-.16.49.16.39a25.47,25.47,0,0,1,6.62-1.3c.34,0,.31-.4,0-.49.4,0,.82,0,1.2,0s.39-.49,0-.47c-3.43.1-6.9,1.14-10.23,2,1-.77,2.06-1.39,3.09-2.06.18-.13.08-.24,0-.34a23.47,23.47,0,0,1,5.24-1.08c.35,0,.39-.37.08-.46-.06,0-.14,0-.21,0s0-.32-.19-.31a21.48,21.48,0,0,0-7.4,1.8c.14-.52.36-1,.54-1.55a.13.13,0,0,0,0-.15c.51-.23,1-.47,1.54-.68A19.42,19.42,0,0,1,36.08,42c.33,0,.43-.4.1-.44a8.13,8.13,0,0,0-1.48,0,17.48,17.48,0,0,1,4.19-.46c.33,0,.39-.44.07-.46a17.85,17.85,0,0,0-5.24.7c0-.16-.1-.26-.3-.21-.5.1-1,.26-1.52.39a.26.26,0,0,0-.39-.17,30.08,30.08,0,0,1,5.81-2.51c.35-.09.36-.53,0-.44a28.21,28.21,0,0,0-6.45,2.71c-.5.3-1,.64-1.48.95,0-.13,0-.28,0-.41.84-.57,1.65-1.16,2.55-1.65.26-.14.59-.21.87-.34a.29.29,0,0,0,.18-.16,16,16,0,0,1,3.36-.93c.34-.07.39-.48,0-.43a15.51,15.51,0,0,0-4.65,1.44c-.78.31-1.55.64-2.32,1,0-.42,0-.83,0-1.24.31-.24.62-.47,1-.7,1.1-.47,2.19-1,3.3-1.36.7-.16,1.47-.29,2.16-.42.26-.05.29-.16.24-.38.52-.16,1.1-.26,1.6-.42s.18-.47-.21-.39a34.34,34.34,0,0,0-3.71,1.14c-.28.1-.55.15-.83.23A30.76,30.76,0,0,1,41,33.74c.34-.08.77-.21,1.11-.31a45.5,45.5,0,0,1,10,3.25.26.26,0,0,0-.17.31s0,0,0,.06a.5.5,0,0,0,0,.13s0,0,0,0a3,3,0,0,1-.07,1,.24.24,0,0,0,0,.15c0,.05,0,.05,0,.08a.39.39,0,0,0,0,.15c.14.26.4.26.49,0a.77.77,0,0,0,0-.15s0-.06,0-.08,0,0,0,0a1.8,1.8,0,0,0,.06-.32c0,.06.08.08.1.16s0,.15,0,.25a.27.27,0,0,0,.23.18c.05.11.12.21.18.32v0c0,.19.2.21.36.26.18.23.46.15.44-.16a4.18,4.18,0,0,0-.16-.58,3.65,3.65,0,0,1,.65,1.59c0,.18.16.21.33.21a.8.8,0,0,0,0,.26c.09.23.26.28.45.13,0,.05.07.13.09.18s0,.07,0,.12.07.13.09.16a.11.11,0,0,1,0,.05,5.35,5.35,0,0,1,.15.64c.1.29.42.29.47,0,0-.13,0-.24,0-.39a.37.37,0,0,0,0-.18c0-.08-.1-.26-.15-.36s.13-.16.08-.28a10.43,10.43,0,0,0-.47-1.16.24.24,0,0,0,.33-.19c.21,0,.39-.15.26-.35a2.37,2.37,0,0,0-.48-.47c.1-.18.15-.29-.06-.43a7.29,7.29,0,0,0-.74-.37.27.27,0,0,0-.19-.23.71.71,0,0,1-.31-.1,5.58,5.58,0,0,0-1.21-.68l0,0-.14-.09s0,0,0,0,0-.21-.12-.31-.31-.14-.46,0a47,47,0,0,0-8.91-3.09A49.43,49.43,0,0,1,56,31.66a.29.29,0,0,0,.21.28,4,4,0,0,1,1.57,1.7c.16.33.7.43.62,0a3.71,3.71,0,0,0-1.49-1.94c.44.05.88.13,1.33.21-.28.11-.27.31,0,.47a1.49,1.49,0,0,1,.75,1.1c0,.36.54.49.65.18s-.06-.59-.18-.87c.25.15.58.21.58-.16a9.1,9.1,0,0,1,.89.73c.12.12.2.08.33.07s.08.1.11.13a.18.18,0,0,1,0,.06c.17.18.31.43.46.61s.29.14.46,0c.13.07.21.15.32.21a.31.31,0,0,0,.38,0l.1.09a.32.32,0,0,0,.47,0,4,4,0,0,1,.3.67c.05.13.14.16.27.18s.07,0,.1,0c.36,0,.38-.31.1-.49h0a5,5,0,0,0-.29-.62c.23-.16.2-.38,0-.49s-.38-.11-.54-.2h0c.22-.26,0-.48-.32-.43a3.41,3.41,0,0,1-.64.1s0,0,0,0c-.21-.18-.44-.32-.67-.49,0,0,0,0,0,0a4.81,4.81,0,0,1,1,.23c.41,0,.41-.33.12-.46,0,0-.12,0-.13,0s0,0,0,0c.33-.11.27-.47-.08-.49s-.68.2-1,.21h-.09c-.2,0-.3,0-.31.24a0,0,0,0,1,0,0c-.15-.07-.29-.17-.44-.23.08-.05.13-.05.21-.1a.25.25,0,0,0,.1-.24c0-.25-.1-.43-.38-.38a6.27,6.27,0,0,0-.85.31l-.39-.13c-.32-.15-.62-.29-.95-.42,0,0,0,0-.06,0s0,0,0,0h-.15a.66.66,0,0,0-.18.1c0,.05,0,0,0,0a47,47,0,0,0-15.89,1.34l-.1,0c-1.4-.21-3.3-.65-4.62-.7a25,25,0,0,0-15.45,4.19c0-.06,0-.11,0-.19s.11-.17.14-.26c.1-.33-.32-.43-.52-.15-.44.6-.83,1.32-1.26,2,0-.13.05-.25,0-.39s-.3-.3-.51-.2a5.94,5.94,0,0,0-.06-1,46.26,46.26,0,0,1,4.83-3.07,59.15,59.15,0,0,1,12.33-5.08,87.54,87.54,0,0,1,17.41-2.62.77.77,0,0,0,.13.09A16.15,16.15,0,0,0,58,26.44c.41.06.44-.36.06-.46a15.15,15.15,0,0,1-2.3-.77H57c0,.18,0,.25.19.31.66.2,1.51.51,2.14.66.44.1.56-.21.28-.43.34.08.77.28,1.13.35s.57-.25.19-.45-.72-.21-1-.34l1.07.1a17,17,0,0,0,1.43,1.06c.31.15.59-.11.36-.37v0c.4.11,1,.34,1.33.44s.35-.07.4-.31a3.22,3.22,0,0,1,.24.28c.21.21.52.14.49-.2,0-.05,0-.08-.06-.11a3.86,3.86,0,0,1,.91.45c.28.18.59,0,.44-.27,0-.08-.15-.1-.19-.17.14,0,.34,0,.49,0,.31,0,.52-.29.21-.44a3.14,3.14,0,0,0-.74-.1c-.23-.05-.31.07-.39.23s0,0,0,0,0-.22-.18-.25c-.46-.11-.93-.21-1.41-.29.51,0,1,.13,1.56.14.34,0,.4-.39.06-.45a17.9,17.9,0,0,0-2.07-.2.28.28,0,0,0-.2-.08l-1.83-.08c-.11,0-.18.06-.28.1s-.21,0-.31,0c.22-.16.22-.43-.11-.47a9,9,0,0,0-3.59.14c-.17,0-.18.13-.2.28a92.77,92.77,0,0,0-19.86,2.5,60.06,60.06,0,0,0-13,5.29,44.26,44.26,0,0,0-4.72,2.94c-.19,0-.42,0-.45.24,0,0,0,.07,0,.1s-.25.2-.36.31c0-.29.06-.57.05-.85,1.43-1.94,2.33-3.87,4.13-5.61a29.57,29.57,0,0,1,11.35-6.5,33,33,0,0,1,6-1.21.35.35,0,0,0,.39.16,4,4,0,0,1,2.86.47c.33.18.57-.11.36-.34a3.52,3.52,0,0,0-.74-.46c.25,0,.51,0,.77,0,.07,0,.08.08.13.1a11.74,11.74,0,0,1,1.63,1c.28.18.56-.13.31-.36a8.83,8.83,0,0,0-1-.74c.21,0,.44,0,.67,0,0,.13,0,.23.15.29.65.27,1.32.61,2,.84a.24.24,0,1,0,.2-.43c-.49-.26-1-.44-1.54-.68l1.06.08c.38.28.79.62,1.16.88s.28,0,.41-.13,0,0,.07,0a4.07,4.07,0,0,1,1,.58c.23.15.39-.06.38-.29a2.8,2.8,0,0,1,.32.2.26.26,0,0,0,.36-.15,1.69,1.69,0,0,1,.31.21s0,.05.05.07a.86.86,0,0,1,.26.68c0,.3.3.31.46.08.26,0,.36-.14.31-.39,0,0,0,0,0,0s.05,0,.08,0c.3-.07.38-.4.08-.49a3.28,3.28,0,0,1-.81-.3s0-.06-.08-.08a2,2,0,0,0,.55-.05c.29-.1.26-.46,0-.47s-.8.08-1.19.06c-.1,0-.18-.11-.28-.13a6.48,6.48,0,0,0,1-.08c.3-.1.26-.47,0-.47s-.8.06-1.19,0c0-.18-.06-.29-.26-.29-.47,0-.95,0-1.42,0-.13,0-.18.09-.21.21l-1-.12h0c.46-.07,1.11-.12,1.5-.23s.36-.49,0-.47-1.21.19-1.76.22c0-.18-.05-.32-.28-.31a3.74,3.74,0,0,0-.74.09c-.31.09-.26.44.07.47a4.72,4.72,0,0,0,.64-.05.26.26,0,0,0,0,.24c-.32,0-.6,0-.93-.06s-.72-.05-1.06-.05c.21-.06.46-.06.66-.13s.26-.44-.07-.47a4.63,4.63,0,0,0-.62.09,1.3,1.3,0,0,0-.13,0,7.49,7.49,0,0,0-2.73.57,34.88,34.88,0,0,0-5.63.74,35.13,35.13,0,0,0-11.91,5.39c-2.53,1.86-3.9,4.18-5.71,6.6a.63.63,0,0,0,0-.3.29.29,0,0,0-.57-.05,12.37,12.37,0,0,0-.18,1.49c-.27.46-.58.91-.86,1.37a20.63,20.63,0,0,0-.3-2.94.29.29,0,0,0-.57.07c0,.06,0,.13,0,.19s-.28.08-.3.23c-.16,1.49-.16,3-.32,4.46a.87.87,0,0,0-.13.15.24.24,0,0,0,.05.37c-.05.25-.09.49-.13.74-.28-.13-.54-.25-.82-.36a8.54,8.54,0,0,0-.18-2.94,12.78,12.78,0,0,0-.1-2.83c0-.24-.33-.23-.49-.1,0-.35,0-.8,0-1.14s-.49-.39-.49-.06a17.51,17.51,0,0,0,.57,4.06,16,16,0,0,1-.52,2.57h0A6,6,0,0,0,11.9,39c-.33.06-.3.47,0,.47a8.23,8.23,0,0,1,3.82.88s0,.1,0,.15c0,.24.18.28.4.21a1.74,1.74,0,0,0-.13.36c-.07.36.27.41.49.16.08-.08.08-.24.14-.34l.9.57c0,.18-.13.31-.15.49s.36.26.54.12c0,0-.05.1-.05.14,0,.36.33.4.54.17.05-.05.05-.15.1-.21l.38.29c0,.15-.09.27-.11.41-1.2-.41-2.47-.69-3.68-1.08,0,0,0,0,0,0a.24.24,0,0,0-.31-.05c-.59-.14-1.23-.34-1.81-.44-.31,0-.54.34-.23.44.67.23,1.37.33,2,.56.23.28.47.55.73.81a.27.27,0,0,0,.18.23s0,0,.07,0L17,44.53c-1.85-.62-3.74-1.25-5.59-1.84-.33-.1-.52.32-.21.44,1.22.47,2.51.85,3.77,1.26a2.5,2.5,0,0,0-.44-.07c-.34,0-.39.41-.05.48a18.39,18.39,0,0,1,3.94,1.3c-1.38-.31-2.78-.68-4.12-1-.34-.1-.55.34-.2.44,3.35,1,6.88,1.7,10.23,2.58.34.1.73-.26.36-.38l-3.42-1c-.05,0-.06-.05-.11-.07-.72-.26-1.42-.55-2.12-.85.18-.13.32-.28.06-.42s-.62-.23-.88-.38c0,0,0-.08-.07-.11-.81-.79-1.64-1.59-2.48-2.37,1,.26,2,.59,3,.85a.29.29,0,0,0,.37-.21.6.6,0,0,0,.22-.09,2.59,2.59,0,0,0-.13.87c.06.31.49.28.6,0,0,0,0,0,0,0a.39.39,0,0,0,.55-.33c.38.29.77.57,1.15.88,0,0,0,.07,0,.1a.41.41,0,0,0,.35.18s.05,0,.06.07a.9.9,0,0,0,0,.31c.06.26.34.26.55.13l0,0A43.81,43.81,0,0,0,25.88,48c-.41.21-.18.43.18.44.09,0,.22-.08.29-.05s.23.23.33.3a.89.89,0,0,1,.24.18,2.5,2.5,0,0,0-.41.95c0,.32.44.32.56.09s.18-.47.33-.68a25,25,0,0,1,3.9,4.38,22.2,22.2,0,0,0-2.73-1.17c.08-.16.08-.32-.1-.4-1-.44-2-.85-2.9-1.38.13,0,.29,0,.4,0,.3,0,.36-.42.05-.47a8.26,8.26,0,0,0-1.22,0,3.87,3.87,0,0,0-.34-.21c-.2-.1-.31,0-.38.21a1.11,1.11,0,0,1-.16-.11c-.18-.08-.28,0-.36.16-.28,0-.56,0-.84,0a.24.24,0,0,0,0,.48,11.43,11.43,0,0,0,1.31,0c.05,0,.1.07.15.08-.09.17-.1.33.08.41.52.25,1,.54,1.53.74.13,0,.21,0,.28-.12,1.78.76,3.63,1.46,5.34,2.32-6,.57-11.33-1.91-17-3.36-.3-.08-.46.37-.17.46,3.48,1,6.9,2.14,10.37,3.08-.34,0-.7,0-1,0s-.37.33-.14.44a15.88,15.88,0,0,0,6.55,2.11.22.22,0,0,0,.14-.4c-.71-.53-1.58-.8-2.32-1.3,1.56.28,3.14.5,4.69.8a.24.24,0,0,0,.25-.08,44,44,0,0,1,2,4.45h-.21a14,14,0,0,0-1.49-2c-.21-.23-.6,0-.4.23.37.55.86,1,1.22,1.6a9.78,9.78,0,0,0-3.36-1.62c-.17,0-.22.05-.3.16-.54-.42-1.08-1-1.63-1.34-.26-.18-.56.08-.33.33s.56.46.8.69a.23.23,0,0,0,0,.31,20.91,20.91,0,0,1,3.72,4.62l-.25.13c-.27.16.12.44.41.29l0,0a10,10,0,0,1,.7,1.83.17.17,0,0,0,.09.12l-.33,0s-.08-.09-.13-.1c-2.37-.7-4.54-1.59-7-1.65-.3,0-.33.46,0,.47a23.37,23.37,0,0,1,6.27,1.47c0,.17,0,.31.23.31a21.31,21.31,0,0,1,4,.56c.06.15.2.18.35.07l1.53.35.34.08a.36.36,0,0,0,.08.12c0,.05,0,.06,0,.1a.24.24,0,0,0,.46.12,18.46,18.46,0,0,1,7.25,2.52,16.28,16.28,0,0,0-6.27-1.75.25.25,0,0,0-.13.48c1.32.42,2.65.85,3.95,1.34-.73-.1-1.48-.23-2.2-.31-.3,0-.44.39-.15.45a22.38,22.38,0,0,0,4.31.4c.44.06.88.16,1.34.18a.24.24,0,0,0,.15-.41,12.29,12.29,0,0,0-6.34-3.11.4.4,0,0,0,.12-.22v0c.44-.07.91-.07,1.35-.11s.36-.59,0-.56c-1,.1-1.89.25-2.84.43l-.24,0a5.41,5.41,0,0,1,.47-.85c.05.23.3.35.44.1a13.79,13.79,0,0,0,.59-1.37l.33-.34,1,.31a5.52,5.52,0,0,1-1.8,1.42c-.35.14-.22.55.13.45a5.08,5.08,0,0,0,2.12-1.68l.06-.06c1.57.42,3.06.75,4.76,1.12.32.09.49-.39.16-.45-1.58-.34-3.06-.7-4.54-1.1.84-.94,1.67-1.89,2.5-2.81l.88.25a.34.34,0,0,0,.2,0s0,0,.06,0c2.47.62,4.93,1.07,7.37,1.84-.9,0-1.8,0-2.7.07H51a.31.31,0,0,0-.27.28s0,0,0,.07a18.07,18.07,0,0,1-4.47-.56c-.31-.08-.64.34-.3.42,2.71.67,5.15.4,7.89.36a8.8,8.8,0,0,1,1.75.84,2.69,2.69,0,0,0,.41,1c-1-.3-2.13-.56-3.14-.8-.28-.07-.54.21-.26.31,1.26.42,2.55.68,3.8,1.07,0,0,0,0,0,0s.14.17.22.25l-2.43-.3c-.28,0-.46.35-.16.38a29.84,29.84,0,0,1,4.73.85,2,2,0,0,1,.8.52l-.55.1c0-.12,0-.21-.16-.23a.26.26,0,0,0-.3.28s0,0,0,0l-.95-.12c-.19,0-.44.2-.24.35a10.79,10.79,0,0,0,4,2,.23.23,0,0,0,.21-.4,9.89,9.89,0,0,0-1.29-.94c.7.19,1.37.49,2.07.67,0,0,0,0,.08,0,.36.79.69,1.61,1,2.46.1.28.49.07.39-.21a23.84,23.84,0,0,0-3.2-6.45,15.08,15.08,0,0,1,1.44.6,4.15,4.15,0,0,1,.56.46,3.38,3.38,0,0,0-.58-.21c-.26,0-.4.24-.14.37.47.25,1,.48,1.42.77.21.29.31.64.52,1s.44,0,.41-.21a.26.26,0,0,0,0-.12,6.48,6.48,0,0,1,1.34,1.9c.13.26.47,0,.39-.22a4.75,4.75,0,0,0-.6-1.19.17.17,0,0,0,0-.19,8.45,8.45,0,0,0-2.94-2.67,8.6,8.6,0,0,0-.74-.49,8.78,8.78,0,0,1,2.09,1.07s0,0,0,.08a.26.26,0,0,0,.28.16,13,13,0,0,1,1.19,1.37c.18.23.47-.06.33-.29a7.25,7.25,0,0,0-1.39-1.59c-1.15-2.33-2.81-3-5.33-3.3a11.66,11.66,0,0,0-1.38-.55A11.79,11.79,0,0,1,64.35,65c.25.16.56-.08.36-.26a9.28,9.28,0,0,0-1.63-1.16s0,0,0,0c0-.21.06-.44.08-.65a.26.26,0,0,0,.12-.23c.13-.13.14-.25,0-.34l-.12,0a3.06,3.06,0,0,0-2.56-2.17c.49,0,1.09.05,1.54.08.26,0,.52-.29.22-.32a22.11,22.11,0,0,0-3.64-.07c.15-.21.3-.42.46-.62l.52,0a.35.35,0,0,0,.31-.21h0c.49,0,1,0,1.5,0h.05l.08,0,0,0h0c.1,0,.18-.1.17-.22h0v0l-.1,0h0a8.81,8.81,0,0,0-2-.13c.13-.13.25-.28.38-.39s.05,0,.06,0c.18,0,.52-.15.28-.35a5.77,5.77,0,0,0,1.81-.85,2.64,2.64,0,0,0,.3.1c.26,0,.65,0,.32-.31,0,0,0,0-.1,0A26.84,26.84,0,0,1,68,55.12a35.94,35.94,0,0,1,4.37-.36,45.09,45.09,0,0,1,11.22,5.37s0,0,.07.07c-.21-.07-.34,0-.34.22-.26,0-.33.18-.18.4a7.66,7.66,0,0,1,.67,1.42c.13.32.47.44.57.09,0,0,0-.09,0-.08a.37.37,0,0,0,.39,0A4.79,4.79,0,0,1,85,63.4c.07.34.41.37.53.08,0,0,0,0,0,0,.19.08.4.11.42-.16a4.32,4.32,0,0,0-.11-.87.3.3,0,0,1,.09.13,7.44,7.44,0,0,1,.33,1.23c0,.19.18.22.36.19a3.1,3.1,0,0,0,0,.43.3.3,0,0,0,.42.24c0,.1,0,.2,0,.28.05.31.42.37.49,0a7.28,7.28,0,0,0,0-1.32c0-.1,0-.17,0-.25a1.15,1.15,0,0,1-.1-.23c0-.08-.07-.18-.1-.28s-.11-.47-.18-.7a1.36,1.36,0,0,1,.38.72c.13.23.54.25.47-.08a2.12,2.12,0,0,0-.41-.77A.35.35,0,0,0,87.54,62Zm-52-18.49a12.29,12.29,0,0,0-1.9.38.13.13,0,0,0-.06-.07A10,10,0,0,1,35.58,43.47Zm-4.21-2c-.13.1-.23.28-.38.35a3.8,3.8,0,0,1-.54.18C30.75,41.76,31.07,41.6,31.37,41.42Zm23.9-2.62a.31.31,0,0,0-.16.18,6.15,6.15,0,0,0-.42-.62A4.21,4.21,0,0,1,55.27,38.8Zm7.45-13.24a.29.29,0,0,0-.13.32,5.84,5.84,0,0,1-.56-.42A5.46,5.46,0,0,1,62.72,25.56Zm-2.4-.95a.33.33,0,0,0-.11.16l-1.8-.08A11.1,11.1,0,0,1,60.32,24.61ZM14.54,38.9s0,0-.08,0a.25.25,0,0,0-.13,0c.08-.28.16-.54.25-.82C14.58,38.33,14.56,38.61,14.54,38.9Zm13.9,8.25a3,3,0,0,1-.31.29c-.33.08-.67.15-1,.25a8.78,8.78,0,0,1,1-.85.41.41,0,0,0,.46,0C28.51,47,28.52,47.05,28.44,47.15Zm-1.26-2.93c.23-.16.36-.37.61-.52s.57-.2.81-.31C28.13,43.65,27.66,43.93,27.18,44.22Zm-.49-.62c.31-.26.64-.5,1-.76,0,.08.09.16.09.22s0,0-.11.1a1.56,1.56,0,0,1-.29.21C27.2,43.44,26.87,43.54,26.69,43.6Zm2-1.25h0a5.34,5.34,0,0,1-.8.26l.85-.67A1.07,1.07,0,0,1,28.73,42.35Zm-2.4-3.92c-.14.11-.36.31-.5.44.37-.59.73-1.2,1.08-1.82.06.2.19.22.39.18l.06,0c-.23.39-.45.78-.67,1.18C26.53,38.34,26.5,38.31,26.33,38.43Zm2.05.52c-.72.46-1.41,1-2.1,1.48,0-.13.12-.24.18-.37C27.1,39.67,27.72,39.29,28.38,39Zm-2.1.18-.34.68c-.37.25-.75.51-1.11.79C25.31,40.08,25.78,39.59,26.28,39.13Zm-.44,2.28c.58-.47,1.15-.93,1.77-1.37A15.64,15.64,0,0,0,26,41.92l-.47.23C25.65,41.9,25.75,41.66,25.84,41.41Zm3-1.78c0,.33,0,.67,0,1-.58.25-1.16.51-1.73.78A16.86,16.86,0,0,1,28.8,39.63Zm.47,6.9c.05-.17.12-.33.17-.49.7-.33,1.4-.66,2.12-1C30.79,45.55,30,46,29.27,46.53Zm.4-1.21c.68-.31,1.37-.64,2.07-.92,0,.05.05.05,0,.1a1.36,1.36,0,0,1-.27.12c-.61.24-1.21.5-1.82.78Zm-.12-1.6c-.16.42-.28.86-.41,1.3l-.18.09c.07-.25,0-.51.12-.76A3.56,3.56,0,0,1,29.55,43.72Zm-9.29-4.9a.18.18,0,0,1,.06-.1c.33-.41.67-.8,1-1.18,0,.33-.09.67-.15,1-.39.44-.77.91-1.14,1.4C20.13,39.57,20.19,39.19,20.26,38.82Zm-2.78-1.34c.28-.41.54-.85.82-1.26,0,.13,0,.26,0,.39a11,11,0,0,0-.79.88ZM16.81,35a18.79,18.79,0,0,1,.1,2.38,1.72,1.72,0,0,1-.24.31C16.75,36.78,16.75,35.88,16.81,35Zm.88,5.86c-.29-.19-.58-.37-.88-.54a16.71,16.71,0,0,0,.51-1.84c.29-.38.6-.72.91-1.06A28.61,28.61,0,0,1,17.69,40.84Zm.54.36s0,0-.05-.05a25.61,25.61,0,0,0,.66-4.37c.16-.15.34-.28.5-.43A14.46,14.46,0,0,1,18.23,41.2Zm.79.59-.31-.24c.26-.61.49-1.21.72-1.83l.06,0C19.36,40.4,19.2,41.1,19,41.79Zm.54.42s0,0,0,0c.1-.41.22-.81.31-1.24a.43.43,0,0,0,.27-.15c.27-.37.53-.73.81-1.09a2.71,2.71,0,0,1-.16.51C20.34,40.88,19.9,41.51,19.56,42.21ZM22,43.49c.57-2,1.76-3.82,2.32-5.86.1-.33-.47-.35-.56,0s-.26.92-.44,1.36c-.18,0-.36-.05-.45.13-.61,1.06-1.31,2-2,3.05-.2.3.36.33.55.1s.59-.8.85-1.17a8.35,8.35,0,0,0-.91,2.58l-.92-.72c.31-.85.61-1.72.89-2.58.18-.3.4-.54.58-.84s-.08-.31-.27-.31c.05-.16.09-.34.13-.52A12.2,12.2,0,0,1,26,35.8c.38-.15.2-.54-.17-.41a11.05,11.05,0,0,0-3.86,2.35c0-.29.07-.57.08-.87C27.87,32.6,33.9,32.12,40.9,33a36.5,36.5,0,0,0-9.76,4.28l-.05,0c-.61.21-1.2.43-1.78.65,0,0,0-.09,0-.14a.31.31,0,0,0-.59.1c0,.08,0,.19,0,.29-.62.31-1.23.64-1.83,1a26.31,26.31,0,0,1,1.37-2.42c.13-.18-.11-.31-.26-.29a2.88,2.88,0,0,0-.91.31l-.07,0c.13-.33.38-.64.49-1s-.34-.44-.52-.13c-1.37,2.42-2.94,4.77-4.54,7.08A7.59,7.59,0,0,0,22,43.49Zm.69.08a14.62,14.62,0,0,1,2.85-2.87c-.06.18-.14.34-.22.52a30.15,30.15,0,0,0-2.16,2.22l-.38.24A.23.23,0,0,0,22.68,43.57Zm1.66,2.56c-.5-.45-1-.91-1.55-1.35.31-.33.6-.69.9-1.05.29-.18.57-.32.86-.49,0,.09-.08.15-.06.23.05.35.46.25.6,0s.13-.44.23-.63l.38-.2a.36.36,0,0,0,.57,0c.08-.1.15-.25.23-.36.76-.38,1.53-.74,2.3-1.08v.18c-1.09.82-2.19,1.65-3.25,2.51.07-.14,0-.31-.15-.32s-.57.24-.21.44c.08.05.15,0,.23,0-.07,0-.11.1-.18.13-.56.23-1.13.34-1.68.6-.38.18,0,.46.26.41a3,3,0,0,0,.37-.11,1,1,0,0,1,0,.11c-.08.2,0,.36.23.38a4.05,4.05,0,0,0,1.14-.23L24.46,46A.77.77,0,0,0,24.34,46.13Zm1.85-1.82a5.34,5.34,0,0,1-1,.57,5.07,5.07,0,0,1,.45-.36C25.8,44.42,26,44.39,26.19,44.31Zm.32,3.2a.18.18,0,0,0-.05.16c-.55-.46-1.19-.83-1.74-1.29a.24.24,0,0,0,.13-.05c1.19-.8,2.4-1.62,3.64-2.38,0,.09,0,.19,0,.27a7.22,7.22,0,0,0-.39.79c-.05.18.11.26.27.28,0,0,0,.06,0,.09-.62.35-1.26.59-1.9.93-.34.18,0,.49.31.36.49-.18,1-.47,1.47-.68a.63.63,0,0,1,0,.19A13.73,13.73,0,0,0,26.51,47.51Zm.66.89a1.15,1.15,0,0,1-.23-.21l.54-.13C27.38,48.18,27.28,48.29,27.17,48.4Zm1.87,8a15.16,15.16,0,0,1-4.57-1.55,18.37,18.37,0,0,1,3.07.33c-.13.13-.19.29,0,.42A10.36,10.36,0,0,0,29,56.39ZM43.16,69.24a11,11,0,0,1,2.49.82C44.8,69.81,44,69.54,43.16,69.24Zm10.4-13.55c-.26.23-.52.46-.77.7-.69.11-1.39.23-2.06.39l.3-.39.18-.21A10.78,10.78,0,0,1,53.56,55.69Zm-3.43,3.46a13.44,13.44,0,0,1,3.67-.91c-.37.09-.75.26-1.12.36a13.35,13.35,0,0,0-1.51.35c-.24.09-.27.25-.11.41-.2.12-.38.21-.57.35L49,59.12a21.38,21.38,0,0,1,5.89-2,14.36,14.36,0,0,1,2.37.44c-.46,0-.93.05-1.39.11a20.32,20.32,0,0,0-6,1.15C49.56,58.94,49.79,59.28,50.13,59.15Zm2.17.15c-.34.06-.26.45.08.39,1.34-.26,2.73-.54,4.1-.7A23.93,23.93,0,0,0,52,60.34c-.36-.14-.7-.29-1-.44a12.1,12.1,0,0,1,1.8-.9,22.37,22.37,0,0,1,5.47-.47A33.07,33.07,0,0,0,52.3,59.3Zm6.27-.15a4.49,4.49,0,0,0-.42.62c-1,.07-2,.15-3,.31.57-.29,1.14-.55,1.73-.78A15.51,15.51,0,0,1,58.57,59.15ZM55,62.68c.34.1.7.1,1,.19a4.53,4.53,0,0,1,.44.23c-.74-.06-1.52-.18-2.24-.21a.34.34,0,0,0-.33.19c-1.77-.62-3.62-1-5.46-1.44.64-.45,1.32-1,2-1.38l1,.38a10.74,10.74,0,0,0-1.52.75c-.3.19-.08.47.23.32.58-.27,1.2-.6,1.83-.84,1,.44,2.09.94,3.11,1.43C54.85,62.38,54.72,62.6,55,62.68Zm-2.27-2.06-.15-.07a23.56,23.56,0,0,1,2.53-.86c-.39.2-.76.39-1.14.62-.38.08-.77.18-1.16.28C52.76,60.59,52.76,60.62,52.71,60.62Zm-6.2-.23-.73-.16h-.06l-.31-.06h0c.42-.35.88-.8,1.32-1.16l1.13.32c-.41.33-.89.58-1.28.93A.42.42,0,0,0,46.51,60.39Zm-9.38-.14.22,0a.89.89,0,0,1,0,.14c0,.06-.08.13-.06.19A3.62,3.62,0,0,0,37.13,60.25Zm.72.42a2.06,2.06,0,0,1,0-.35l.31,0c0,.14-.06.29-.1.42l-.21,0A.19.19,0,0,1,37.85,60.67Zm2.45-1a.26.26,0,0,0-.15-.2c-.08-.62-.16-1.24-.28-1.84a.27.27,0,0,0,.12,0c.13.44.24.89.36,1.35,0,.12.13.15.24.15h0c-.14.1-.18.26,0,.35a.24.24,0,0,0,.1.14h0a.28.28,0,0,0,.49.07l.67.2A.26.26,0,0,0,42,60c-.1.07-.18.14-.28.2L40.31,60C40.3,59.9,40.3,59.77,40.3,59.64Zm9.75-2.74-.53.08c.25-.15.51-.28.76-.41Zm1.53.5c-.52.18-1,.43-1.5.66,0-.1-.11-.12-.15-.17s.13-.06.1-.14C50.55,57.63,51.06,57.48,51.58,57.4Zm-5.39.05a15.4,15.4,0,0,1,5.33-2.33l-.28.29A44.8,44.8,0,0,0,46.19,57.45ZM45,60.07l-1-.22a4.43,4.43,0,0,1,.46-1s0,0,0,0,.3-.24.44-.36l1.33.33c-.36.34-.82.65-1.15,1A.3.3,0,0,0,45,60.07Zm.43-2,.47-.36c0,.23.16.34.41.23.93-.4,1.88-.84,2.82-1.23a18.37,18.37,0,0,0-2.41,1.7ZM47.84,55c-.31.18-.57.41-.88.59-.52.31-1,.6-1.49,1-.36.26-.88.56-1,1,0,.13.1.13.15.16s0,.06,0,.06l-.47-.11c.15-.23.31-.44.47-.65.8-.69,1.55-1.42,2.37-2.06,0,.16.13.21.31.16Zm-.06-.47a13.86,13.86,0,0,1,2.28-1c-.09.08-.05.16-.18.23s-.29.16-.47.23C48.89,54.2,48.33,54.35,47.78,54.53ZM44.25,58.3a8.27,8.27,0,0,0-.78,1.36s0,0,0,0v0h-.05a5.28,5.28,0,0,1,.49-1.5ZM44,60.42h-.11Zm-1.19-.12-.17,0a1.5,1.5,0,0,1,.11-.13v0h.05Zm-2.23.83-.25,0,0-.51c.25,0,.5.05.74.09C40.89,60.81,40.71,61,40.54,61.13Zm-.74-.61c0,.17,0,.33,0,.5l-1.18-.17c0-.15.07-.3.11-.45Zm-3,.6a7.1,7.1,0,0,1,0,1.53l-.62,0c-.12-.18-.24-.35-.37-.52-.13-.39-.27-.77-.4-1.16Zm-.42-.55c.08-.1.15-.23.22-.31a2.09,2.09,0,0,1,.08.34ZM35.94,66A6.42,6.42,0,0,0,36,65c.09.37.14.76.23,1.14l-.33-.07S35.93,66,35.94,66Zm.19-2.66a7.86,7.86,0,0,1,.44,1.29,3.52,3.52,0,0,1,0,.56c0,.08.06.11.08.18a3.09,3.09,0,0,1,0,.68C36.51,65.14,36.33,64.25,36.13,63.33Zm1.7,2.74c0,.13,0,.27,0,.4l-.22,0Zm-1.11-2.59a3.79,3.79,0,0,0-.2-.34h.24C36.74,63.26,36.74,63.37,36.72,63.48Zm1.57-.56c0-.21,0-.41,0-.62s.16-.63.24-.95l1.26.17c0,.17,0,.33-.05.5-.27.33-.47.71-.67.95l-.1.11Zm.25.57-.19.2a2.11,2.11,0,0,0,0-.25Zm1.58-.88c.54-.45,1.08-.93,1.6-1.42a.19.19,0,0,0,0,.1q-.22,1.08-.54,2.16c-.07.07-.12.15-.18.22l-1-.28C40,63.13,40.08,62.87,40.12,62.61Zm2.24-1.29a.32.32,0,0,0-.18.18s0-.1,0-.14c0-.25-.17-.32-.38-.25.1-.1.19-.21.28-.31l1.13.18C43,61.09,42.64,61.2,42.36,61.32Zm1.15.08c-.57.43-1.11.87-1.63,1.33.1-.38.18-.75.26-1.15,0,.18.13.27.33.2S43.17,61.5,43.51,61.4Zm1.26-.81h.08Zm2.47-2.06c.28-.23.55-.47.85-.67.08.18.1.25.34.21s.57-.1.83-.14a.35.35,0,0,0,.3.39c-.36.19-.74.37-1.11.57C48.05,58.76,47.65,58.64,47.24,58.53Zm4.82-4a16.38,16.38,0,0,0-2.42.57c.1-.2.23-.39.34-.57.28-.12.56-.25.85-.35.13,0,.29,0,.43-.08a.34.34,0,0,0,.26-.23c.72-.29,1.42-.57,2.17-.8C53.12,53.58,52.58,54.07,52.06,54.58Zm13.35-7.2A31.53,31.53,0,0,0,56.76,51c-.74.44-1.41,1-2.12,1.5l-.93.23c-.09-.15-.15-.21-.36-.16a16.72,16.72,0,0,0-2.49.88l.54-.69c.36-.1.72-.26,1.08-.33s.57,0,.82,0,.47-.33.13-.44S53,52,52.81,52a.38.38,0,0,0-.2,0h-.1a.75.75,0,0,1-.11,0,1.5,1.5,0,0,1-.3,0,16.17,16.17,0,0,1,5.69-3.51,34.86,34.86,0,0,1,8.9-1.37C66.26,47.19,65.84,47.27,65.41,47.38Zm9.26-1.61c-.22.07-.32.2-.22.43,0,0,0,0,0,0a4.71,4.71,0,0,1-.67-.47Zm-1.25-.62-.49,0c-.12,0-.13,0-.23,0-.34-.17-.72-.31-1.08-.46C72.23,44.86,72.83,45,73.42,45.15ZM59,44.44a32,32,0,0,1,7.48-.35c-.23.17-.27.41.05.48a7.13,7.13,0,0,1,2.61,1c.32.21.71,0,.45-.31a4.3,4.3,0,0,0-1.21-.7l.11,0a.76.76,0,0,1,.16-.06s0,0,.07,0a.7.7,0,0,0,.29.08s0,0,.07,0c.31.23.67.59,1,.78s.34.08.55,0c.23.1.46.25.67.36a.36.36,0,0,0,.52-.1,7.33,7.33,0,0,1,1.25.71c-1.59,0-3.17.09-4.77.19a42.53,42.53,0,0,0-10.7,1.52,17,17,0,0,0-6.19,4,19.09,19.09,0,0,0-2.89.54.2.2,0,0,0-.12-.15l.45-.15c.31-.09.5-.55.06-.47a16,16,0,0,0-2.58.88C50,48.44,53.48,45.73,59,44.44ZM45.8,53.29c.65-.3,1.31-.57,2-.82a26.25,26.25,0,0,0-2.36,1.36A5.14,5.14,0,0,0,45.8,53.29ZM43.06,55.1A15.35,15.35,0,0,1,44.69,54a4.31,4.31,0,0,0-.44.7.61.61,0,0,1-.13.15l-.9.81-.16,0Zm-.17,2c.3-.4.62-.77.93-1.15.23,0,.4,0,.54-.18s.25-.55.38-.8a20.36,20.36,0,0,1,3.3-2c.11.1.13.13.31.08L49,52.8s0,0,.08,0,.18,0,.2,0-.05,0-.07,0-.32.11-.47.18a.27.27,0,0,0-.21.27c-.51.36-1,.75-1.52,1.13a12,12,0,0,0-2.94,2.47l-.78.57s.06-.07.06-.12c0-.32-.26-.26-.47-.18C42.89,57.14,42.86,57.11,42.89,57.08Zm.39,1h0Zm-.08.12.08-.12s0,0,0,0a6.43,6.43,0,0,0-.46,1.49l-.4-.1A11.72,11.72,0,0,1,43.2,58.22Zm-1.91-.15s.07-.08.07-.13,0-.11,0-.16l.44.08c-.06.16-.08.33-.14.49s-.12,0-.15.08c-.21.17-.28.39,0,.48,0,.11,0,.21,0,.33l-.3-.08c0-.21,0-.42,0-.61A3.93,3.93,0,0,1,41.29,58.07Zm-3.57-7.93A36.9,36.9,0,0,1,40.54,54c.08.38.15.77.21,1.15a5.45,5.45,0,0,0-.24-.84c-.13-.24-.57-.13-.51.17a15.77,15.77,0,0,1,.48,2.66h0a7.56,7.56,0,0,0-.86-1.64A14.23,14.23,0,0,0,37,50.71a.27.27,0,0,0-.34-.08l-.08-.14C37,50.36,37.36,50.25,37.72,50.14Zm-.66,1.51a13.7,13.7,0,0,1,1.73,3l-.09-.1a11.49,11.49,0,0,0-1.52-1.74.54.54,0,0,0,0-.1A5.61,5.61,0,0,0,37.06,51.65Zm1.15,3.24a14.44,14.44,0,0,1,1,2.15l-1-.06a10.61,10.61,0,0,0-.2-2.24C38.06,54.79,38.16,54.81,38.21,54.89Zm-1.64-2.84c-.27-.43-.57-.84-.88-1.25a2.23,2.23,0,0,0,.39-.13A4.38,4.38,0,0,1,36.57,52.05Zm-.75-1.75-.42.15c-.26-.31-.51-.61-.77-.9A3,3,0,0,1,35.82,50.3Zm-1.63-.51a32.08,32.08,0,0,1,2.87,4.07c-.24.06-.39.24-.11.39a3.82,3.82,0,0,0,.36.13A10.53,10.53,0,0,1,37.64,57l-1.34-.07c-.15-.21-.28-.42-.43-.62a7.63,7.63,0,0,0-1.93-3.09,5.83,5.83,0,0,0-.39-2.33A4.22,4.22,0,0,1,34.19,49.79Zm.41,4.9c-.26-.29-.52-.57-.8-.85a.54.54,0,0,1,0-.1A7.8,7.8,0,0,1,34.6,54.69Zm-1.39-5.27s.1,0,.15,0l-.64.39a.31.31,0,0,0-.11.08l-.35.28a3,3,0,0,0-.16-.26A11.5,11.5,0,0,1,33.21,49.42ZM33,50.82c0,.13-.08.18-.08.31a4.94,4.94,0,0,1-.36-.57,2.19,2.19,0,0,1,.22-.2C32.83,50.51,33,50.69,33,50.82Zm-3.09,4c.65-.08,1.33-.15,2-.28.21.34.41.69.61,1C31.65,55.34,30.77,55.11,29.91,54.81Zm1.16-2.65a.22.22,0,0,0,.33-.06A5.73,5.73,0,0,1,32.16,51,9.36,9.36,0,0,1,32.75,52c0,.12,0,.26,0,.4a2.84,2.84,0,0,0-.49-.25c-.31-.08-.44.18-.2.36a6.8,6.8,0,0,1,.75.46,0,0,0,0,1,0,.08c-.16.06-.28.15-.16.33s.29.31.42.47,0,.13.1.21a.34.34,0,0,0,.26.15,28.54,28.54,0,0,1,1.9,2.22l.09.41c-.57,0-1.14-.05-1.71-.05A31.42,31.42,0,0,0,31.07,52.16ZM34,57.22l1.55.05c.07.31,0,.59.07.9s.44.23.5-.05a2.44,2.44,0,0,0,0-.54c.15.25.23.53.38.79A.25.25,0,0,0,37,58.2a6.21,6.21,0,0,0-.39-.88l1,.07c.13.23.34.16.52,0l1.08.08c0,.34-.07.69-.07,1s.2.22.36.18c.08.42.11.84.16,1.26l-.87-.07c.06-.27.13-.54.19-.8s-.38-.41-.51,0-.15.53-.22.81l-.32,0a2.65,2.65,0,0,0,0-.38c0-.31-.36-.36-.47-.07a2.24,2.24,0,0,0-.1.41l-.38,0a.17.17,0,0,0-.12,0c0-.07-.06-.13-.1-.2a.27.27,0,0,0-.41,0,3.21,3.21,0,0,0-.57.81.15.15,0,0,0,0,.09l-.6-.07C34.86,59.35,34.47,58.28,34,57.22Zm.83,3.64.12.3-.2-.31Zm-.34.51A9.14,9.14,0,0,1,35,62.62a7,7,0,0,0-1.17.26,17.7,17.7,0,0,0-3.31-3.76A11.26,11.26,0,0,1,34.5,61.37Zm-2.73-.46A12.44,12.44,0,0,1,33.42,63l-.2.07A14.73,14.73,0,0,0,31.77,60.91Zm1.66,2.64.22-.09a9.23,9.23,0,0,1,.83,2c.1.33.51.18.43-.15a9.62,9.62,0,0,0-.81-2,6.41,6.41,0,0,1,1-.18A10,10,0,0,1,35.49,66c-.51-.11-1-.2-1.56-.26a.26.26,0,0,0,.13-.29A8.57,8.57,0,0,0,33.43,63.55Zm4.88,3a0,0,0,0,0,0,0c0-.43,0-.88,0-1.32.28-.53.58-1,.89-1.55l.14,0a9,9,0,0,1-.2,1.55c-.08.48-.14,1-.21,1.42Zm1.46-1.38c0-.17,0-.35,0-.51s0-.16,0-.24,0-.37.07-.55l.7.22C40.34,64.45,40,64.8,39.77,65.18Zm3.58-1.31-.32.38L42,64c.78-.8,1.56-1.6,2.3-2.44.13-.09.28-.17.42-.25l.82.19C44.77,62.21,44.09,63,43.35,63.87Zm3.94-2.47s0,0-.07,0c-.56-.22-1.15-.4-1.73-.57l.09-.06c.82.16,1.65.32,2.46.45.32.05.49-.37.16-.44L47,60.49c.46-.29,1-.69,1.45-1,.51.17,1,.36,1.49.56A13,13,0,0,0,48,61.42a.19.19,0,0,0-.08.1l-.45-.12Zm11.36,8a14.67,14.67,0,0,1,1.54.76A10.49,10.49,0,0,1,58.65,69.36Zm1.2-.38A.74.74,0,0,0,60,69a.25.25,0,0,0,.17-.29c.37.24.73.49,1.07.76C60.81,69.28,60.34,69.11,59.85,69Zm2.33.76-.1,0c0-.08,0-.16,0-.23A12.34,12.34,0,0,0,60,68a.18.18,0,0,0-.06-.25,21.64,21.64,0,0,0-3.19-1.32,3.37,3.37,0,0,1-.21-.34c-.13-.3-.21-.75-.59-.85.1-.08.22-.2.07-.31a3.64,3.64,0,0,0-.46-.3l.67.09a.31.31,0,0,0,.34-.27,3.52,3.52,0,0,1,.71.25l.4.19h-.24c-.3,0-.33.31,0,.35s.47,0,.68,0c0,.11,0,.19,0,.23a2.71,2.71,0,0,1-.87.2c-.26,0-.38.4-.07.37a7.78,7.78,0,0,0,1.75-.37l.07,0q.39.06.78.15A20.65,20.65,0,0,1,62.18,69.74Zm-1-5.56a.22.22,0,0,0,.16,0,4.65,4.65,0,0,1,2.09,2,11.1,11.1,0,0,0-2.45-1A.14.14,0,0,0,61,65a9,9,0,0,0-1.12-1.11Zm-3.06-.51c.22,0,.43,0,.64.09a6.67,6.67,0,0,1,1.63,1.3c-.27,0-.55-.1-.83-.13a17.74,17.74,0,0,0-1.47-1.26Zm.69,1.25-.48,0a7.22,7.22,0,0,0-2.62-1.05q-.61-.3-1.26-.54c.71.06,1.4.12,2.11.2-.15.16-.12.31.11.31s.47-.06.7-.06C57.9,64.13,58.38,64.52,58.85,64.92Zm3.8-1.61a13.23,13.23,0,0,0-6.1-.84s-.08,0-.12,0a.11.11,0,0,1-.08,0c-.41-.24-.83-.49-1.26-.72.82,0,1.65,0,2.49.09-.2.13-.17.31.08.32a23.08,23.08,0,0,1,5,.62A4.55,4.55,0,0,0,62.65,63.31Zm-2-2.74c-.23,0-.43.25-.2.31s.44-.2.25-.29a4.06,4.06,0,0,1,2,1.48,40.76,40.76,0,0,0-8.25-.71s-.08,0-.11,0c-.33-.15-.64-.33-1-.49.08,0,.24-.06.31-.06s.06,0,.11,0a35.41,35.41,0,0,1,4.64.53c.29,0,.49-.27.2-.35a25.54,25.54,0,0,0-3.38-.52C57,60.33,59,60,60.6,60.57Zm-1.31-2.24a14.67,14.67,0,0,0-3.74-.21,2.84,2.84,0,0,1,.31-.06c.49,0,1,0,1.5,0a.45.45,0,0,0,.35-.15c.63,0,1.29,0,1.92.08Zm.67-.71-1.52-.1,0,0A13.71,13.71,0,0,0,57.07,57h.2a.26.26,0,0,0,.19,0,16.39,16.39,0,0,1,2,.47c.31.09.61-.19.28-.32a12.43,12.43,0,0,0-4.38-.66c.09,0,.17,0,.25,0,1.11,0,2.29.05,3.36.12.35,0,.49-.25.2-.38a10.23,10.23,0,0,1,2.46.43A19.35,19.35,0,0,1,60,57.62Zm8.67-3.06a26.25,26.25,0,0,0-6.43,1.8,16.74,16.74,0,0,0-6.5-.31,20.54,20.54,0,0,0-2.09.21,9,9,0,0,1,1.91-1.34c.95-.06,2,0,2.91,0,.34,0,.5-.31.14-.38s-1,0-1.57-.08l.15-.05c.72-.22,1.94-.57,2.81-.73.11,0,.34,0,.44,0a.48.48,0,0,0,.23-.1,35.42,35.42,0,0,1,10.22.73C70.13,54.33,69.29,54.45,68.63,54.56Zm18.11,8.36c-.13-.19-.24-.41-.37-.6a.26.26,0,0,1,0-.08.45.45,0,0,0-.09-.1s0,0,0,0c.2-.05.28-.16.18-.38a3,3,0,0,0-.28-.34l.39.23a.34.34,0,0,0,.15.29.36.36,0,0,0,0,.23,2.33,2.33,0,0,1,.08.36.52.52,0,0,0,0,.25c0,.06.06.09.06.14S86.74,62.91,86.74,62.92Z"/>
  <path class="cls-1" d="M88.59,61.89c-.1-.08-.21,0-.28.07s-.06-.05-.11-.05c-.36,0-.38.29-.12.49.1.08.22,0,.28-.07s.07.05.11.05C88.85,62.37,88.85,62.07,88.59,61.89Z"/>
  <path class="cls-1" d="M56.27,41.19c.31,0,.24-.48-.07-.45S56,41.2,56.27,41.19Z"/>
  <path class="cls-1" d="M34.73,40.24c.29.1.55-.3.26-.39S34.42,40.14,34.73,40.24Z"/>
  <path class="cls-1" d="M85.34,51.21c.2.23.57,0,.37-.26S85.16,51,85.34,51.21Z"/>
</svg>
