<?xml version="1.0"?>
<svg xmlns="http://www.w3.org/2000/svg" id="Gallery_Silence" viewBox="0 0 100 100">
  <defs>
    <style>.cls-1{fill:#fff;}</style>
  </defs>
  <title>Artboard 1</title>
  <path class="cls-1" d="M73.55,37.73l0,0h.08Z"/>
  <path class="cls-1" d="M64,60.87a.93.93,0,0,1,.14.14A.93.93,0,0,0,64,60.87Z"/>
  <path class="cls-1" d="M33.39,56.67a4,4,0,0,0-.37-.3l.35.36S33.38,56.69,33.39,56.67Z"/>
  <path class="cls-1" d="M37.94,36.3h0Z"/>
  <path class="cls-1" d="M74.59,37.27l.1-.08-.12.06Z"/>
  <path class="cls-1" d="M44.4,15.16l0,0,0,0Z"/>
  <path class="cls-1" d="M76.48,22.19s0,0,0,0l.06,0Z"/>
  <path class="cls-1" d="M55.57,39.57a3.89,3.89,0,0,1,1.26-1.93,4.72,4.72,0,0,0,3,.43,48.58,48.58,0,0,0,7.8-1.39,24.5,24.5,0,0,0,9.94-4.54c.5-.42,1-.83,1.59-1.26l-.68-.39c-.45.3-.82.62-1.27.89A24.17,24.17,0,0,1,71,34.43c-.15,0-.22.18-.32.27,1.85-.33,3.1-1.18,4.76-1.65a7.52,7.52,0,0,1-2.68,1.68,46.12,46.12,0,0,1-12.58,3,7.11,7.11,0,0,1-3.39-.45c.31-.61.61-1.19.91-1.8a11.82,11.82,0,0,0,4.11,0,24.74,24.74,0,0,0,7.53-2.34,55.74,55.74,0,0,0,7.85-4.73l-1,.23a4.15,4.15,0,0,1,1.71-1.3c.3.29.16.45,0,.61l.77-.48-.43-.45c.09-.39,1.09-.52.18-1.09a3.94,3.94,0,0,1-.52.55,24.35,24.35,0,0,1-8.14,4.13c-2,.58-4.16,1.1-6.24,1.66a6.7,6.7,0,0,1-3.68.08c.09.49.29.65.91.61a18.5,18.5,0,0,0,2.3-.3,63,63,0,0,0,8-2.18,3.45,3.45,0,0,1,1.25-.28c-.12.14-.14.21-.21.25s-.29.16-.45.23a43,43,0,0,1-8.92,2.83,9.62,9.62,0,0,1-3.8.06,4.5,4.5,0,0,1,.07-.56c.16-.53.36-1.07.53-1.6a4.8,4.8,0,0,1,.7,0,8.13,8.13,0,0,0,3.75-.07,33.52,33.52,0,0,0,6.74-2.23c.38-.16.73-.35,1.11-.53a1.94,1.94,0,0,0-.86.16A40.1,40.1,0,0,1,64.58,31a9.56,9.56,0,0,1-5.12,0c.16-.57.32-1.1.42-1.5a16.38,16.38,0,0,0,2.31-.27c1.32-.35,2.6-.74,3.83-1.17a36.44,36.44,0,0,0,9.48-4.87c.36-.28.63-.6.94-.89a1.57,1.57,0,0,0-.39.17,33.4,33.4,0,0,1-9.37,5c-1.55.55-3.21,1-4.83,1.46a2.35,2.35,0,0,1-1.59,0c.09-.37.14-.69.21-1a5.75,5.75,0,0,0,3.13-.12,30.23,30.23,0,0,0,7.08-3,22.32,22.32,0,0,0,4.55-3.32,9.34,9.34,0,0,0,2-2.53c.2-.36.17-.39-.51-.52a1.9,1.9,0,0,1-.36.57c-1,.89-2.05,1.79-3.09,2.66-.45.38-.94.75-1.41,1.14-.94.46-1.89.92-2.81,1.39a18.66,18.66,0,0,1-6,2.07,9.76,9.76,0,0,1-1.55.06c-.43,0-.73-.22-.71-.49a6.77,6.77,0,0,1,.23-1,3.87,3.87,0,0,0,2.55.27,27.93,27.93,0,0,0,3.18-.88,25.13,25.13,0,0,0,6.24-3.53,11.19,11.19,0,0,0,1-.82.93.93,0,0,0-.6.23,30,30,0,0,1-5.2,3.18,18.35,18.35,0,0,1-4.71,1.55,4.7,4.7,0,0,1-2.1-.23c-.43-.15-.43-.33-.14-.43a7.06,7.06,0,0,0,1.39,0,18.75,18.75,0,0,0,4.42-1.39,17.11,17.11,0,0,0,7.45-5.78,1.3,1.3,0,0,0-.42.25A17,17,0,0,1,70,20.81a19.74,19.74,0,0,1-6.48,2.77,4.5,4.5,0,0,1-2.32.07c-.19-.43.22-.44.57-.52a12.69,12.69,0,0,0,1.61-.35,21.88,21.88,0,0,0,8.92-5.28,5.33,5.33,0,0,0,.64-.86c-.75.46-1.07,1.14-2.1,1.43.32-.93,1.12-1.72,1.14-2.73-1.61,3.33-4.91,5.6-10,6.81.93.24,1.53-.21,2.53-.23a6,6,0,0,1-3.3.89c-.07-1.73.38-3.3.25-5a3.3,3.3,0,0,0,1.91-.59,6.16,6.16,0,0,0,2.34-2.75c.39-.88.07-1.29-1.39-1.95.51.91-.11,1.56-.61,2.2a3.92,3.92,0,0,1-2.2,1.66.69.69,0,0,1,.27-1.05,3.49,3.49,0,0,0,1.73-2.47c0-.21.16-.46-.28-.69-.82,2.33-.86,2.39-2,2.53,0-1.21.55-2.32.48-3.55-.18.62-1.09.29-1.64.45a9.84,9.84,0,0,0-.89-.75A11.64,11.64,0,0,0,58,10.29c1.75,1.34,2,1.68,1.62,2.28-.46-.39-.87-.75-1.32-1.09-.82-.64-.87-.66-1.51-.71,2.3,1.46,3.33,2.57,3,3.25a28.23,28.23,0,0,0-4-2.73c.92.91,2.39,1.59,3,2.62a23.85,23.85,0,0,1-6.64-4,10.72,10.72,0,0,0,1.3,1.31,26.65,26.65,0,0,0,5.16,3.14,5.14,5.14,0,0,1,1.64,1.16,6.21,6.21,0,0,1-1-.22,36.09,36.09,0,0,1-5.14-2.82l-2.8-2a8.86,8.86,0,0,0,1.55,1.43,23,23,0,0,0,3.77,2.43c1,.5,2.09,1,3.1,1.51.2.09.24.32.34.48a1.94,1.94,0,0,1-.68,0c-.94-.35-1.9-.69-2.78-1.12a29.65,29.65,0,0,1-5.48-3.59c-.5-.39-1.07-.76-1.6-1.14a.68.68,0,0,1-.23.07,3.82,3.82,0,0,0,.48.77,24.61,24.61,0,0,0,7.76,5.48c.5.23,1,.48,1.5.73.3.16.69.3.75.62a1.33,1.33,0,0,1-.36,0c-1.11-.43-2.21-.84-3.3-1.29a23.45,23.45,0,0,1-6.53-4.17,8,8,0,0,0-.73-.52,1.87,1.87,0,0,0,.35.46c.5.45,1,.9,1.56,1.34a19.38,19.38,0,0,0,5.8,3.44c1.07.42,2.1.86,3.17,1.31,0,.23-.09.46-.16.78A49.19,49.19,0,0,1,46.86,12a3.77,3.77,0,0,0,.77.78c1.14.86,2.25,1.71,3.44,2.54a35.25,35.25,0,0,0,8.73,4.56l-.15.7c-2.44-1.29-4.78-2.48-7.08-3.69a49.91,49.91,0,0,1-6.46-4.29c.07.24.07.29.11.32a2,2,0,0,0,.34.31,48.09,48.09,0,0,0,8.28,5.23c1.49.73,2.92,1.53,4.37,2.33.18.11.34.36.28.48s-.44.09-.71,0-.39-.18-.59-.27a67.1,67.1,0,0,1-7-3.78,36.25,36.25,0,0,1-5.1-3.82.88.88,0,0,0-.29-.2c-.28.31-.53.56-.82.86.34.32.77.69,1.15,1.07a34.57,34.57,0,0,0,8.15,6.1c1.28.73,2.66,1.37,4,2,.28.15.69.25.61.59a1.39,1.39,0,0,1-.43-.09c-.77-.32-1.52-.62-2.27-1a46,46,0,0,1-9-5.6l-2.72-2.06a6.88,6.88,0,0,0,.76.86c2,1.59,4.09,3.16,6.37,4.62a35,35,0,0,0,5.25,2.84c.62.27,1.21.55,1.8.86.32.17.59.37.32.64a2.65,2.65,0,0,1-.48-.07c-1.07-.4-2.2-.75-3.2-1.23-1.48-.72-2.87-1.5-4.28-2.29a52.28,52.28,0,0,1-7.37-5.07c-.5-.39-1-.76-1.57-1.17-.34.66.09,1.19.68,1.73a63.29,63.29,0,0,0,6.33,4.81A28.76,28.76,0,0,0,55,25a18,18,0,0,1,3.89,1.84c-.21,0-.42.13-.57.07a41,41,0,0,1-6-2.28,52.4,52.4,0,0,1-10.83-7.14c-.27-.24-.63-.46-.95-.7a4.48,4.48,0,0,0,.47.63,20.24,20.24,0,0,0,1.87,1.55,52.53,52.53,0,0,0,8.71,5.62,37.62,37.62,0,0,0,7.07,2.81c.14.32.21.62-.18.76-1.2-.48-2.3-.89-3.39-1.34-.82-.33-1.66-.67-2.45-1.05a59.06,59.06,0,0,1-11.4-7.21,3.24,3.24,0,0,1-.75-.84c-.18-.28-.44-.3-.93-.35a3.93,3.93,0,0,0,.52,1.09,21.22,21.22,0,0,0,1.71,1.71A43.51,43.51,0,0,0,51,26.27c1.71.91,3.55,1.7,5.35,2.52.57.25,1.18.46,1.85.71-.39.72-.76,1.38-1.14,2.06a35.25,35.25,0,0,1-5.46-2.07,65.27,65.27,0,0,1-7.62-4.38,47.83,47.83,0,0,1-6-4.42c-.36-.32-.78-.62-1.25-1a3.18,3.18,0,0,1,.48,1,2.69,2.69,0,0,0,1,1.75,58.34,58.34,0,0,0,4.89,3.83,67.29,67.29,0,0,0,11.76,6.53,2.84,2.84,0,0,0,.64.18l.12-.12a7.94,7.94,0,0,0-.89-.52c-1-.48-2.09-.91-3.09-1.41a67.72,67.72,0,0,1-12.88-8.42,15.87,15.87,0,0,1-1.16-1.16,2.18,2.18,0,0,1,.23-.09,56.07,56.07,0,0,0,8.26,6.14,74.78,74.78,0,0,0,10.09,4.89l.12-.09c-.21-.2-.43-.38-.64-.57,0,0,0-.06.09-.08L57,32c-.48.93-.92,1.8-1.42,2.75-.43-.22-.72-.32-1-.47a12,12,0,0,0-1.25-.78,74.16,74.16,0,0,1-7.45-3.77c-.36-.21-.75-.41-1.13-.62a43.1,43.1,0,0,0,5.41,3.44,1.38,1.38,0,0,1-.64-.14c-.86-.41-1.72-.82-2.54-1.25a55.65,55.65,0,0,1-6.65-4c-1.72-1.2-3.29-2.48-4.91-3.73A1.21,1.21,0,0,1,35,23c0-.1.13-.21.23-.35-.64.07-.71.09-.64.23A5,5,0,0,0,35.21,24a20.29,20.29,0,0,0,3.44,3.25c.39.28.75.6,1.13.93a.77.77,0,0,0-.16.07,50.19,50.19,0,0,1-6-4.39c.42.44.83.91,1.24,1.35-.41.16-.76.31-1.1.43a6,6,0,0,0,1.84,2.21,44.75,44.75,0,0,0,5.06,3.84,70.42,70.42,0,0,0,11.14,5.91,6.28,6.28,0,0,0,.89.26c.07-.37-.34-.42-.61-.55-1.46-.64-2.92-1.28-4.35-2a59.77,59.77,0,0,1-8.33-4.89,31.76,31.76,0,0,1-4.71-3.91c-.22-.21-.52-.43-.25-.77.32.24.57.42.8.61s.68.63,1.07.91c1.86,1.34,3.71,2.66,5.58,4a38.16,38.16,0,0,0,7.87,4.39l4,1.62a12.46,12.46,0,0,1-2.69,4,6.44,6.44,0,0,0-.59-.39,26,26,0,0,0-2.8-1.52,41.63,41.63,0,0,1-8.28-4.28c-1.6-1.14-3.08-2.39-4.64-3.57-.32-.25-.48-.64-1.12-.71l-.22.09a6.84,6.84,0,0,0,.58.64c1.37,1.14,2.71,2.32,4.17,3.41a34.89,34.89,0,0,0,7,4c1.65.73,3.22,1.53,4.82,2.32.34.16.72.37.61.66a1.51,1.51,0,0,1-.91,1l-1.14-.77a2.68,2.68,0,0,0-.56-.36c-1.26-.55-2.6-1-3.78-1.64-1.93-1-3.73-2.12-5.57-3.21a6.91,6.91,0,0,1-.69-.6c-.33-.16-.71-.3-1-.47-.8-.5-1.57-1-2.36-1.52-.6-.41-1.23-.8-1.83-1.21l-.22.14a89.71,89.71,0,0,0,17,9.85c-.24.36-.41.64-.59.93a28.69,28.69,0,0,1-4.59-1.82A60.47,60.47,0,0,1,35.9,37a2.89,2.89,0,0,1-.51-.59c.33.22.67.42,1,.65a41.43,41.43,0,0,0,6.1,3.72c1.5.75,3,1.47,4.55,2.2.52.25,1,.48,1.59.71l.18-.07c-.07-.12-.07-.3-.22-.39a13.19,13.19,0,0,0-1.3-.66c-2-1-4-1.82-5.89-2.82a50.93,50.93,0,0,1-6.76-4.51c-.62-.49-1.25-1-2-1.54.16.59,0,1.05.57,1.52.29.25.52.5.45.8,0,.11.14.27.27.39.73.66,1.48,1.32,2.23,2a36.29,36.29,0,0,0,11,6.37c.19.07.42.08.82.17a3.44,3.44,0,0,0-1.31-.8c-1.3-.55-2.65-1.07-3.89-1.71A40.7,40.7,0,0,1,36.24,38a2.64,2.64,0,0,1-.34-.41,16.78,16.78,0,0,1,2.43,1.45,41.87,41.87,0,0,0,10.55,5.4,10,10,0,0,1-2,3c-2.76-1.53-5.49-3-8.06-4.51a70.91,70.91,0,0,1-7.08-5,.42.42,0,0,0,.12.35,66.85,66.85,0,0,0,14.86,9.37.9.9,0,0,1-.75.86c-.21-.59-.89-.9-1.51-1.24a78.91,78.91,0,0,1-9.28-5.58l-1.39-1a10.22,10.22,0,0,0,1.66,1.53A61.84,61.84,0,0,0,43,46.92a2.28,2.28,0,0,1,.89.68,22.8,22.8,0,0,1-4.3-2.22c-1.34-.84-2.66-1.69-3.89-2.58S33.48,41,32.37,40.16a6.13,6.13,0,0,0,1.32,1.49,50.8,50.8,0,0,0,6.6,4.61,43.85,43.85,0,0,0,5.2,2.51c.48.18.76.36.32.7a40.34,40.34,0,0,1-12.92-7.8c.52.63,1,1.25,1.68,2-.49-.27-.75-.39-1-.53a.5.5,0,0,0-.14.08c.8.63,1.57,1.25,2.39,1.88a46.57,46.57,0,0,0,7.13,4.58,9.73,9.73,0,0,0,1.18.5c.32.13.48.06.48-.18-.94-.44-1.91-.87-2.82-1.35-1.65-.88-2.12-1.21-2.39-1.64,2.13,1,4.23,2,6.36,3-.25.38-.49.75-.75,1.18A42.32,42.32,0,0,1,33.12,44.1c-.57.3-.34.64,0,1,.57.56,1.16,1.07,1.79,1.64-.47.15-.56.34-.24.63.13.11.24.25.38.37a30.53,30.53,0,0,0,6.33,4.43,4.9,4.9,0,0,0,2.29.75c.07-.31-.27-.4-.57-.52-.5-.2-1-.37-1.49-.61a27.51,27.51,0,0,1-6.08-4,5.3,5.3,0,0,1-.45-.51l.22-.08a55.37,55.37,0,0,0,9.17,5.54c-.07.37,0,.8-.55,1.14-.47-.2-1-.36-1.45-.57a37.13,37.13,0,0,1-7.53-4.75c-.34-.29-.69-.57-1-.86.21.61.89,1,1.39,1.54.25.27.87.52.36.84-.06,0,.09.23.19.32A37.92,37.92,0,0,0,42.6,54.7c.23.1.5.16.74.25a1.14,1.14,0,0,0,.17-.15,19.07,19.07,0,0,0-3.29-1.92,27.49,27.49,0,0,1-3.16-2.18A39.05,39.05,0,0,0,44,54.3c-.07.36-.12.65-.21,1-.7-.25-1.29-.43-1.82-.68a24.52,24.52,0,0,1-4.3-2.51c-1.11-.81-2.18-1.65-3.27-2.47a.82.82,0,0,0,.29.47c1,.87,2.09,1.76,3.21,2.62.59.45,1.32.8,2,1.21a13.06,13.06,0,0,0,3.59,1.68c.59.16.62.38.37.66l-.45-.14a26.1,26.1,0,0,1-6.22-3.5A3.31,3.31,0,0,0,35.78,52,17.69,17.69,0,0,0,40,55a14.08,14.08,0,0,0,4,1.71c0,.39.3.78-.09,1.12-.18,0-.32-.07-.45-.12a35.39,35.39,0,0,1-5.73-3.2,44.34,44.34,0,0,1-4.33-3.12,2,2,0,0,0-.27-.1.83.83,0,0,0,.3.57,4.45,4.45,0,0,1,1.66,3.19,20.56,20.56,0,0,0,.18,4c.06.25.06.55-.62.62a2.82,2.82,0,0,1-.29-.75q0-1.09,0-2.19a5.23,5.23,0,0,0-.6-2.91,2.18,2.18,0,0,0-1.16-1.09,1.38,1.38,0,0,1-.52-.55c-.52-.68-1-1.37-1.55-2.07a.84.84,0,0,0-.84-.39,1.29,1.29,0,0,0,.19.39,14.29,14.29,0,0,1,3.61,6,1.31,1.31,0,0,1-.09.49,1.27,1.27,0,0,1,.46,1.47,17.56,17.56,0,0,0-.5,2.52.82.82,0,0,1-.34.57,2.29,2.29,0,0,1-.21-.41c-.07-.66-.09-1.32-.16-2-.11-.86-.21-1.7-.32-2.55,0-.11,0-.2,0-.38a7.77,7.77,0,0,1,.67.46,1.12,1.12,0,0,1-.15-.19c-.3-.57-.59-1.16-.89-1.73-.07-.13-.07-.34-.21-.4-.88-.37-.88-.94-1.22-1.42a12.55,12.55,0,0,0-.89-1.13c-.09-.09-.36-.12-.55-.19a9.48,9.48,0,0,1,1.8,3.57c-.52-.63-.91-1.25-1.41-1.86a11.66,11.66,0,0,0-3.3-2.84c-.3-.16-.66-.26-1-.41L25,49.9a9.88,9.88,0,0,1,4.41,4,2.71,2.71,0,0,1-.61-.42c-1-.84-2-1.66-2.94-2.48a.91.91,0,0,0-.93-.25,4,4,0,0,0,.76.69,9,9,0,0,1,2.45,2,14.92,14.92,0,0,1,3.25,5.15c.07.16.14.39-.34.39a3.68,3.68,0,0,1-.32-.37,51.18,51.18,0,0,0-4.66-5.53,1.33,1.33,0,0,0-1.3-.57,1.68,1.68,0,0,1-.68-.25c-.41-.18-.82-.41-1.25-.57a1.82,1.82,0,0,0-2.18.3,3.39,3.39,0,0,1,2.3.13,13.32,13.32,0,0,1,3.2,1.92,21.68,21.68,0,0,1,4.66,5.52,22.47,22.47,0,0,1,1.07,2.14c.14.3.26.64-.33.85-.17-.28-.32-.51-.44-.73-.25-.43-.43-.87-.71-1.3-.75-1.11-1.54-2.21-2.32-3.32a11.86,11.86,0,0,0-2.63-2.68,10,10,0,0,0-1.41-.8c-.25-.12-.55-.16-.71,0,1.75.69,2.91,1.6,3.05,2.35-1.12-.43-1.59-1.44-3.16-1.69l1.55,1c-.3.23-.51.41-.73.59-2-.64-2-.64-2.44-.39,2.94.75,6,2.91,5.85,4.28l-1.37-1.11A12.6,12.6,0,0,0,22.86,57c-.27-.11-.52-.23-.75,0a10.79,10.79,0,0,1,2.32,1.25c-1.48-.3-1.48-.3-2,0a3.81,3.81,0,0,1,2.19.73c1,.6,1.82,1.26,2.77,1.89a3.19,3.19,0,0,1,1.23,1.55,4.26,4.26,0,0,1-.55-.34c-1-.62-1.93-1.3-3-1.85a10.15,10.15,0,0,0-2.32-.84,1.48,1.48,0,0,0-1.75.41,4.57,4.57,0,0,1,3.07.32c.62.27,1.21.57,1.8.87S27,61.51,27,62c0,.2.23.45.39.68.46.66.94,1.3,1.39,2a2.1,2.1,0,0,1,.16.5A2,2,0,0,1,28.5,65c-1.12-1-2.25-2.09-3.35-3.13l-1.49-1.44a.81.81,0,0,0-1-.2,4.43,4.43,0,0,0,.45.36,4.75,4.75,0,0,1,1.62,1.87A8.46,8.46,0,0,0,28,66.26a4.56,4.56,0,0,1,.44.44l-.19.08c-.56-.4-1.09-.79-1.64-1.16A10.82,10.82,0,0,1,23.11,62a2.24,2.24,0,0,0-1.48-1.31,2.31,2.31,0,0,0,.68,1.72c.77,1,1.6,1.94,2.41,2.91a3.21,3.21,0,0,1,.34.48,1,1,0,0,0-.18.09,4.09,4.09,0,0,1-.66-.34l-3-2.27c-.23-.16-.41-.32-.73-.09L24.22,66l-1,.27c.78.18,1.3.34,1.82.41a6,6,0,0,1,2.3.93c-.18.3-.55.25-.91.18s-.86-.2-1.28-.3c-.9-.22-1.79-.45-2.68-.63-.25,0-.66-.16-.8.16.64.14,1.25.25,1.85.39a6.26,6.26,0,0,1,1.88.61A8.09,8.09,0,0,0,23,69.27a10.94,10.94,0,0,1,2.84-.69c-.43.39-.77.66-1.05.94a.88.88,0,0,0,0,1.25c.57-.26,1-.53,1.55-.73,1.09-.43,2.18-.84,3.32-1.21a1.8,1.8,0,0,1,1.86.37c-.45.06-.81.15-1.2.18a8.29,8.29,0,0,0-4.94,2c-.09.07-.09.21-.12.34a1.35,1.35,0,0,0,.3,0A5,5,0,0,0,26,71.4a8.52,8.52,0,0,1,5.07-1.66,4.16,4.16,0,0,1,.66.09,1.1,1.1,0,0,1,.09.14c-.32.12-.64.25-1,.36-.54.18-1.12.28-1.61.5-.78.34-1.35.78-1.39,1.6l1.2-.94c.19.55-.38.85.07,1.42.21-.25.37-.39.48-.55s.21-.45.36-.66c.69-1.12,1.76-1.14,3.62-1a3.05,3.05,0,0,1,.61.23c-.81.16-1.48.27-2.14.41a2.06,2.06,0,0,0-1.68,1.3c-.06.16-.09.36.35.43a1.82,1.82,0,0,1,2.07-1.3c0,.41-.89.53-.51,1.18a3.83,3.83,0,0,1,.68-.56c.53-.28,1.08-.55,1.67-.82a4.13,4.13,0,0,1,.82,0,10.25,10.25,0,0,0-1.76,1c-.41.34-1.16.61-.86,1.36.91-.61,1.37-1.45,3.09-1.38-.47.5-1.59.57-1.25,1.32a4,4,0,0,1,2.69-1,1.4,1.4,0,0,1,1.59.62,10.52,10.52,0,0,0-2.23.31c-.57.21-1.27.48-1.34,1.09,1.13.05,1.43-.84,2.62-.5.18.3-.17.35-.39.46-.43.22-.87.45-1.26.68-.22.12-.2.28.08.45.49-.11.4-.68,1.15-.47a2.54,2.54,0,0,1,.05,2.23s0,0,0,.07c-.55,2.16-1,4.34-1.66,6.48a19.35,19.35,0,0,1-1.1,2.78,7.12,7.12,0,0,1-1.31,2.43c-.09.09,0,.25-.09.37a1.28,1.28,0,0,0,1.24-.17,15.8,15.8,0,0,1,1.85-1.09,1,1,0,0,0,.61-.68c.32-1.34.69-2.66,1.05-4,.13-.43.29-.86.41-1.28L40,77.3a2.71,2.71,0,0,1,2.05-1,2.05,2.05,0,0,1,.54.1,3,3,0,0,1,1.46.86c.39.52.73,1,1.07,1.55.07.11.12.23.18.34l.21,0a10.91,10.91,0,0,0-.69-1.48,12.94,12.94,0,0,0-1.25-1.44,4,4,0,0,1,2.67.91c.43.39.77.82,1.15,1.23l.32.32a2.13,2.13,0,0,0-.9-1.48,18.69,18.69,0,0,0-2.07-1.45,1.35,1.35,0,0,1,.38,0,5.43,5.43,0,0,1,4,1.86,8.36,8.36,0,0,0,.55.66c.18.19.38.37.57.55a5.77,5.77,0,0,0-1.46-2.09,9.6,9.6,0,0,0-2.94-1.44,5.8,5.8,0,0,1,3.82.41,5.55,5.55,0,0,1,1.83,1.46c.45.46.91.91,1.41,1.39-.07-.43-.1-.77-.19-1.11-.15-.57-.29-1.16-.5-1.73a2.63,2.63,0,0,0-.63-.87A1.87,1.87,0,0,0,49,74.54l.32,0a2.32,2.32,0,0,1,2.16.67A2.53,2.53,0,0,1,52.12,77c-.92-.64-1.46-1.47-2.71-2a13.83,13.83,0,0,0-3.89-.48c.95-.68,2.66-1,4.87-.64a7.88,7.88,0,0,1,5.14,3,6.54,6.54,0,0,0-1.71-2A9.18,9.18,0,0,0,46,73.81a14.71,14.71,0,0,0-3.85,1.69,1.23,1.23,0,0,1-1.25.09c.41-.25.73-.46,1.09-.66a24.16,24.16,0,0,1,4.44-1.61,13.29,13.29,0,0,1,5.66-.23,24.5,24.5,0,0,1,3.58,1c.72.22,1.38.52,2.23.84a8.45,8.45,0,0,0-2.69-1.3,23.78,23.78,0,0,0-2.84-.8c-.92-.22-1.89-.31-2.83-.45V72.2a20.26,20.26,0,0,1,7.9,1.2.4.4,0,0,0-.16-.16,17,17,0,0,0-8.55-1.38,1.68,1.68,0,0,1-1.35-.3,7,7,0,0,1,1.83-.36c1.52-.2,3.16.36,4.68.25a1,1,0,0,1,.43.09l2.35.8c.27.09.52.2.79.31a8.55,8.55,0,0,0-2.73-1.32c-1-.29-2.09-.54-3.25-.84a9.85,9.85,0,0,1,3.27.12,8.44,8.44,0,0,1,4,2.34,6.12,6.12,0,0,0-1.61-1.7A6.94,6.94,0,0,0,54,70.08a15.28,15.28,0,0,0-5.66.32c-.73.19-1.48.37-2.25.53a5.32,5.32,0,0,1-.76-.1,5.47,5.47,0,0,1,.87-.38c1.32-.3,2.62-.62,4-.85a10.59,10.59,0,0,1,4.37.32c1.48.39,3,.8,4.46,1.19-.13-.27-.23-.5-.36-.75a2.17,2.17,0,0,0-.36-.64,6.2,6.2,0,0,0-2.85-1.39c-.61-.16-1.23-.3-1.86-.45a17.85,17.85,0,0,1,6.77.91c-.27-.43-.49-.8-.72-1.16a1,1,0,0,0,.18-.09l2,.72a1.39,1.39,0,0,0-.22-.2c-1.27-.59-2.51-1.21-3.82-1.77A3.52,3.52,0,0,0,55.46,66a3.08,3.08,0,0,1-1.78-.17,1.68,1.68,0,0,1,1.82-.52,2,2,0,0,0,1.4.11,4.62,4.62,0,0,1,2.9.51c.32.16.62.36.92.54l.13-.07c-.45-.32-.89-.65-1.43-1.06a7.54,7.54,0,0,1,4,.65v-.47c-.38-.12-.72-.25-1.06-.37,0,0,0-.07,0-.11l1.11,0s0-.1,0-.16c-1.18-.19-2.37-.41-3.55-.57-.79-.1-1.57-.16-2.36-.19a7.81,7.81,0,0,1-2.46-.4A11,11,0,0,1,60,63.37a28.79,28.79,0,0,1,4.92,1.23,4.48,4.48,0,0,0-1.51-.93A10.72,10.72,0,0,0,60.33,63a2.53,2.53,0,0,1-1.69-.39c.55-.09,1-.16,1.32-.22.09-.23,0-.46.19-.51a2.41,2.41,0,0,1,1.71-.06c.38.13.75.25,1.15.36.05,0,.12,0,.18,0a2.27,2.27,0,0,1-.11-.34l1.41-.09c-.07-.21-.06-.37-.18-.51L64.1,61a2,2,0,0,1,.26.38c-.28-.06-.5-.09-.68-.14A5.43,5.43,0,0,0,61.47,61a3.93,3.93,0,0,1-1.94-.17,4.78,4.78,0,0,1,2.94-.57,2.36,2.36,0,0,1,1.49.61,3.37,3.37,0,0,0-3.49-.7,43.88,43.88,0,0,1-5.08,1.32,2.48,2.48,0,0,1-1.45.06c.11-.11.15-.2.24-.25a4.43,4.43,0,0,1,.62-.3A22.47,22.47,0,0,1,62,59.44a11.61,11.61,0,0,1,4.39.45l.52.14a3,3,0,0,0-1.22-.55,16.91,16.91,0,0,0-7.28.12c-1.87.4-3.6.95-5.53,1.31a13.13,13.13,0,0,0-6.15,2.57,4,4,0,0,1-1.54.89,7.27,7.27,0,0,1,2.5-2c1-.55,2.11-1.07,3.25-1.64a12.53,12.53,0,0,0-3.78,1.53c-1,.65-1.91,1.38-2.86,2.07a1.23,1.23,0,0,1-.23-.09c.11-.19.16-.39.28-.57A12.44,12.44,0,0,1,47.54,61a3.91,3.91,0,0,1,2.53-.75c.39,0,.75-.09,1.13-.11a23.46,23.46,0,0,0,9.36-2.64,47.54,47.54,0,0,0,5.66-3.68,4.78,4.78,0,0,0,.52-.51c-.27,0-.36,0-.4.07-1.19.75-2.35,1.51-3.58,2.26a8,8,0,0,1-1.39.59,1.72,1.72,0,0,1-.63,0l4.59-3.49-1,.1a2.54,2.54,0,0,1,1.14-1.5,31.44,31.44,0,0,0,2.52-2,11.59,11.59,0,0,1,2.64-2.14,7.26,7.26,0,0,0,1.27-.82,19.93,19.93,0,0,1-3.29,1.52c-.07-.16-.1-.27-.19-.48-.4.3-.7.57-1.06.8a12.35,12.35,0,0,1-2.08,1.29c-1.32.57-2.75,1.05-4.18,1.53-2.07.68-4.14,1.39-6.31,2a18.17,18.17,0,0,1-6.41.75c-.57,0-1.23,0-1.27.5a2.08,2.08,0,0,0,1.5.45,12.09,12.09,0,0,0,1.73-.16,32.18,32.18,0,0,0,6.36-1.66c2.17-.89,4.53-1.63,6.81-2.41A3.31,3.31,0,0,1,64,50.4a.48.48,0,0,1-.23.48,21.37,21.37,0,0,1-5.24,2.39c-2.14.61-4.36,1.16-6.57,1.69a32.39,32.39,0,0,1-3.25.54,5.27,5.27,0,0,1-2.44-.2,5.23,5.23,0,0,1,.12-.57c.32-1.12.63-2.25,1-3.37A7.75,7.75,0,0,1,49,48.54a1.12,1.12,0,0,1,.87-.34c1.09,0,2.18-.07,3.23-.18a48.06,48.06,0,0,0,8.8-1.53,41.76,41.76,0,0,0,7.39-3.07,1.28,1.28,0,0,1,.44-.12,1.74,1.74,0,0,0,.14.12c-.6.36-1.17.75-1.82,1.09s-1.37.7-2.08,1-1.45.57-2.18.85-1.52.59-2.32.84-1.59.43-2.39.63-1.66.42-2.52.62S55,48.84,54.1,49s-1.83.18-2.73.32a17.11,17.11,0,0,0-2.67.12,2.28,2.28,0,0,0,1.53.31c1.5-.15,3-.25,4.44-.52a50.74,50.74,0,0,0,7.77-2,1.88,1.88,0,0,1,1.37-.1c-.84.34-1.48.62-2.14.87s-1.3.48-2,.68-1.46.39-2.21.57-1.54.34-2.3.48-1.52.23-2.27.38a10.73,10.73,0,0,0-2.3.28,3.72,3.72,0,0,0,1.25.14C52.91,50.38,54,50.24,55,50a34.39,34.39,0,0,0,10.37-3.46c1.73-1,3.46-1.95,5.05-3a7,7,0,0,0,2.16-2.07,7,7,0,0,1,1.16-1.28c.07-.05.1-.13.16-.2a1.72,1.72,0,0,0-.63.09c-2.89,1.11-5.76,2.23-8.67,3.32a28.92,28.92,0,0,1-7.72,1.75A15,15,0,0,1,52.52,45a1.49,1.49,0,0,0-.45,0,3.2,3.2,0,0,0,2,.57,20.46,20.46,0,0,0,4.75-.34,2.49,2.49,0,0,1,1.34-.05,2.86,2.86,0,0,1-.5.25c-.88.21-1.75.41-2.64.6s-1.68.32-2.52.49a8.35,8.35,0,0,1-3-.17,1.94,1.94,0,0,0,.86.45A6,6,0,0,0,54,46.9a46.49,46.49,0,0,0,7.35-1.69,61.93,61.93,0,0,0,7.85-2.77,3.42,3.42,0,0,1,.59,0,.6.6,0,0,1-.34.45c-1,.55-2.11,1.12-3.21,1.62a31,31,0,0,1-5,1.84,54.31,54.31,0,0,1-9.08,1.45,4.56,4.56,0,0,1-2.38-.2c.89-1.25,1.79-2.46,2.7-3.71a8.71,8.71,0,0,0,3.3.34A26.51,26.51,0,0,0,63.2,43c2.72-.89,5.34-1.89,8-2.85.09,0,.1-.11.16-.16l-.25-.2a4.62,4.62,0,0,1-.73.41,73,73,0,0,1-8.27,2.84,27.2,27.2,0,0,1-8.11.76,9,9,0,0,1-1.32-.26c.23-.31.41-.52.59-.75a10.69,10.69,0,0,0,4.53-.09c.28-.06.59-.11.89-.15A45,45,0,0,0,70.8,39.1c.94-.42,1.82-.89,2.71-1.35H72.7a11.17,11.17,0,0,1,3.56-1.69c-.56.4-1.07.75-1.57,1.12.85-.39,1.7-.78,2.54-1.19a6.54,6.54,0,0,0,.84-.52c.3-.21.26-.43-.36-.71l-.57.3c-1.86.91-3.68,1.86-5.57,2.73a36.48,36.48,0,0,1-9.63,3,24.61,24.61,0,0,1-5.57.38,3.87,3.87,0,0,1-1.64-.43c.12-.55.12-.54.91-.5a9.86,9.86,0,0,0,1.89,0c2.32-.28,4.62-.58,6.92-.9a19.71,19.71,0,0,0,6.26-1.86,37,37,0,0,1,4.55-2.25,8.49,8.49,0,0,0,1.91-1,1.46,1.46,0,0,0,.47-.75s-.2-.18-.47-.43c.24,1.13-.85,1.43-1.74,1.82-1.09-.12-1.41.43-2,.75a7.06,7.06,0,0,1-.82.43,64.86,64.86,0,0,1-12.51,3,9.41,9.41,0,0,1-2.82.07,4.3,4.3,0,0,0-.62,0s0,.11,0,.16a8.58,8.58,0,0,0,1.1.16c.93,0,1.85,0,2.76,0A7.49,7.49,0,0,1,55.57,39.57Zm6.15-22.73a6.11,6.11,0,0,0,2.5-2.06l.68-1.12.28,0c.06.14.18.28.13.39a6.31,6.31,0,0,1-2.82,3.28.85.85,0,0,1-.91.11C61.28,17.32,61.33,17,61.72,16.84ZM34.26,35.48l1,.78A1.27,1.27,0,0,1,34.26,35.48ZM25.81,65.55c.69.12.76.49,1.07.74C26.43,66.12,25.9,66,25.81,65.55ZM71.68,38.23s.12.09.21.16c-.14,0-.23.09-.3.07s-.16-.12-.14-.14S71.59,38.23,71.68,38.23ZM75.57,29l.21.16a2.35,2.35,0,0,1-.46.21l-.16-.11ZM59.08,34A11,11,0,0,0,64,33.57a44.38,44.38,0,0,0,9-3.16,7.75,7.75,0,0,1,.91-.35A30.06,30.06,0,0,1,66.79,34a23.94,23.94,0,0,1-5.41,1.3,9.53,9.53,0,0,1-3.32-.11c.17-.37.31-.73.45-1.1A2.87,2.87,0,0,1,59.08,34Zm1.68-7.26a17.48,17.48,0,0,0,7.46-1.84c1.17-.57,2.24-1.21,3.33-1.82.16-.09.23-.25.34-.37.59-.35,1.18-.69,1.75-1.06.34-.19.66-.41,1-.62l.2.1a1.83,1.83,0,0,1-.23.38,26.89,26.89,0,0,1-9.09,5.28,13.86,13.86,0,0,1-1.46.5,5.6,5.6,0,0,1-2.32.21,8.65,8.65,0,0,0-1.12,0C60.65,27.24,60.71,27,60.76,26.76Zm-.11-7.37a1,1,0,0,1,0,.27h-.18c0-.09,0-.2,0-.29Zm-7.71-6,1.06.73c.37.27.75.51,1.14.76A4.1,4.1,0,0,1,52.94,13.41Zm6.14,3.69c-1.19-.57-2.37-1.16-3.53-1.76a1.83,1.83,0,0,1-.37-.42,29.43,29.43,0,0,0,4.15,1.83c.32.1.73.19.64.6A5,5,0,0,1,59.08,17.1ZM45.84,14.2l.29-.11a22.14,22.14,0,0,1,2.34,1.73c.82.57,1.58,1.16,2.33,1.77a29.74,29.74,0,0,1-4.33-2.65A2.59,2.59,0,0,1,45.84,14.2ZM59,23.05c-2.53-.61-9.86-5-10.38-6.3,3.14,2.07,6.46,3.8,9.67,5.62a1.8,1.8,0,0,1,.2-.11,5.07,5.07,0,0,1-.29-.57C59.55,22,59.71,22.3,59,23.05Zm-.21,3.19-.66-.32A11.1,11.1,0,0,0,56.39,25a27.86,27.86,0,0,1-6.89-3.41c-2-1.38-3.91-2.8-5.82-4.23a4.34,4.34,0,0,1-1.42-1.48,1.4,1.4,0,0,1,.91.44c1.28,1,2.49,2,3.85,2.89s3,2,4.66,3c1.19.71,2.48,1.34,3.74,2a12.71,12.71,0,0,0,3.52,1.27A7.35,7.35,0,0,1,58.76,26.24Zm-1.3,2.46c-1.45-.55-2.93-1.07-4.3-1.69A49.89,49.89,0,0,1,42,20c-.28-.23-.5-.5-.87-.87a2.43,2.43,0,0,1,1.32.64,51.09,51.09,0,0,0,6.1,4.18,42,42,0,0,0,7.56,3.64,25.09,25.09,0,0,1,2.47,1.16C58.15,29,57.8,28.83,57.46,28.7Zm-19-2a2.52,2.52,0,0,1-.43-.35c-.34-.31-.64-.63-1-.93,0,0,.09,0,.12-.09l.5.27a94.09,94.09,0,0,0,8.49,5.55,49.3,49.3,0,0,0,6,2.82c.84.32,1.68.64,2.5,1,.55.23.55.25.26.66-1.05-.45-2.05-.91-3.12-1.32A56.93,56.93,0,0,1,38.44,26.68Zm10.9,8.44a48.34,48.34,0,0,1-9.58-5.67c-1.36-1-2.68-2-4-2.94a3.33,3.33,0,0,1-.79-.9c.83.18,1.13.68,1.66,1s1.09.8,1.66,1.19,1.22.81,1.84,1.2,1.2.75,1.8,1.11,1.2.73,1.82,1.08S45,32,45.65,32.29s1.26.69,1.91,1,1.33.72,2,1.07,1.29.68,2,1,1.28.63,2,1c-.18-.46-.18-.46-1.57-1.17l-1.87-1,.12-.13L54.71,36c-.18.25-.36.53-.55.82A23.42,23.42,0,0,1,49.34,35.12ZM37.06,47.54c.25.09.38.11.47.16,2.09,1.36,4.48,2.43,6.76,3.61.32.16.75.32.43.66A32.62,32.62,0,0,1,37.06,47.54Zm6.5,10.89c.23,0,.45.09.69.12,0,.05,0,.09,0,.14l-.72-.1C43.54,58.53,43.54,58.48,43.56,58.43Zm-1.23,0L44,59.3c.39.2.39.21.23.7-1.7-.41-2.63-1.07-2.59-1.82C41.9,58.28,42.13,58.34,42.33,58.44Zm1.37,3.32a2.51,2.51,0,0,1-.37,2,7.17,7.17,0,0,0,.21-1.07C43.58,62.39,43.29,62,43.7,61.76Zm0,3.25a1.34,1.34,0,0,1-.77,1.34A1.49,1.49,0,0,1,43.7,65Zm-1.37.71a1.53,1.53,0,0,1-.41-1.6,2.52,2.52,0,0,0,.18-1.18c0-.09,0-.16.09-.27A2.06,2.06,0,0,1,42.33,65.72ZM40,66.88c-.21-.32-.28-.3-.12-.89.21.25.36.39.48.55.43.52.77,1.07,1.27,1.57.78.81.75,1-.66,1.38-.07-.25-.25-.48-.15-.61C41.42,68.17,40.47,67.54,40,66.88ZM39.69,59c-.06-.46-.2-.94-.31-1.43.65.22.77.52.81.81.12,1.16.23,2.3.3,3.44s.07,2.27.09,3.41c0,0-.07.11-.14.23A1.47,1.47,0,0,1,39.81,64,18.64,18.64,0,0,0,39.69,59Zm2.76,12.35A1.65,1.65,0,0,1,41,72.74c0-.13-.11-.24-.07-.33C41.1,72,41.6,71.67,42.45,71.31Zm-.09-.73-.14-.06c0-.09,0-.18.07-.23a1.37,1.37,0,0,1,.31-.11l.16.13A2.35,2.35,0,0,0,42.36,70.58Zm-.55-4c.11.23.21.46.32.7l-.28,0c-.08-.21-.15-.43-.24-.66ZM39,55.7a6.08,6.08,0,0,1,.6.34c.27.17.5.39.79.57,1,.62,1,.69.5,1.57-.48-.45-.48-1.13-1.61-1.13-.19-.46-.37-.89-.55-1.3Zm0,12.2A3.43,3.43,0,0,1,37.85,65C39.06,65.72,39.56,67,39,67.9Zm-.09-9H39c.05.09.09.19.14.28h-.09C39,59.1,39,59,38.92,58.91Zm.25,2.34c0-.11,0-.22,0-.31l.16,0v.3Zm-2.71-7.36c2,1.15,2.14,2.52,2.41,3.91-.79-.14-1.09-.43-1.16-.8-.11-.54-.18-1.09-.29-1.73a3.89,3.89,0,0,0,.11,2.34A8.69,8.69,0,0,0,38,58.85a11.79,11.79,0,0,1,.71,4.36,3.26,3.26,0,0,1-.12,1.16,3.31,3.31,0,0,1-1.11-2.09,18.89,18.89,0,0,0-1.29-7.12C35.87,54.43,35.92,54.3,36.46,53.89Zm-.06,6.34c-.78-1.75-1-2.95-.6-3.66A5.34,5.34,0,0,1,36.4,60.23Zm-.48-6.5-.27,0c-.07-.16-.14-.34-.26-.61C36,53.39,36.07,53.56,35.92,53.73ZM35.64,60a15.28,15.28,0,0,0,.84,1.67,3,3,0,0,1,.32,2,1.33,1.33,0,0,1-.16.34l-.24,0C35.69,62.67,34.8,61.35,35.64,60Zm-.41,2.71c.75,1.43,2,2.84,1.64,4.41a3.73,3.73,0,0,1-1.29-2.23C35.39,64.15,34.92,63.4,35.23,62.71ZM36.37,69c-.36.09-.59.13-.91.2-.07-.21-.14-.37-.2-.53l.22-.08C35.73,68.74,36,68.85,36.37,69ZM33.82,61c0-.09.1-.18.34-.23.26,1.57.53,3.14.8,4.74-.64,0-.77-.26-.84-.5a7.58,7.58,0,0,1-.37-1.64A23.28,23.28,0,0,1,33.82,61Zm1.09,7.73-1.07-.45h0c.26-.07.52-.12.83-.19C34.71,68.19,34.78,68.36,34.91,68.69Zm-2.34-5.62c0,.12,0,.26.09.39h-.2c0-.15-.05-.27-.07-.39Zm-6.34-6.43.25-.07a9.35,9.35,0,0,1,3.43,3.57l-.2,0C28.55,59,27.39,57.84,26.23,56.64Zm2.23,6.5.17,0c.05.13.12.24.18.36Zm-.39,2.55a3.6,3.6,0,0,1-1.25-1.45c1,.82,2.09,1.64,3.18,2.48C29.3,66.67,29,66.51,28.07,65.69Zm.87-2,.6.59-.29.06C29.16,64.08,29.05,63.86,28.94,63.65Zm-3.17,6c.09-.59.89-.68,1.43-1s.48-.22,1.21-.11A6.2,6.2,0,0,1,25.77,69.65Zm3.53-2.27a1.81,1.81,0,0,1,1.32,0C30.11,67.7,30.07,67.7,29.3,67.38Zm1.75-3a6.66,6.66,0,0,1-.39-1c-.16-.32-.38-.62-.57-.95-.34-.57-.68-1.12-1-1.71l.88-.27a2.34,2.34,0,0,1,.27.2c.35.57.73,1.14,1,1.71.88,1.7,1.72,3.41,2.55,5.11.12.24.32.49.06.69C32.88,67,32,65.7,31.05,64.4Zm2.25,5.73a3.23,3.23,0,0,1,2.8.71C35.12,70.58,34.25,70.36,33.3,70.13ZM36,69.51a2.36,2.36,0,0,1,2.35,1.12C37.67,70.54,37.49,70.45,36,69.51Zm2.48-.84c.64.35.64.35.68.8l-.23,0C38.83,69.27,38.69,69,38.51,68.67Zm1.05,8.4c-.19.73-.35,1.45-.55,2.16-.39,1.43-.79,2.85-1.21,4.28S37,86.1,36.58,87.38A2,2,0,0,1,35,88.76a4.6,4.6,0,0,0,.09-.5c.45-1.13,1-2.23,1.34-3.36s.84-2.49,1.18-3.74.64-2.75,1-4.12c.07-.24.18-.47.27-.72C39.56,76.5,39.65,76.75,39.56,77.07Zm-.16-1L39,76c0-.36-.17-.77,0-1s.62-.47,1.05-.64A2.74,2.74,0,0,1,39.4,76.09Zm.89-6.58c-.75-.38-.83-.7-.46-1.5C40.6,68.6,40.31,69,40.29,69.51Zm5.62,2.14a1.37,1.37,0,0,1,1.13.21c.16.3-.23.3-.48.38-.93.3-1.88.58-2.79.92-.37.15-.78.31-.73.7,0,.09-.11.16-.19.21-.56.32-1.13.63-1.7.93a4,4,0,0,1-.45.09L40.53,75c.17-.36.12-.82,1-.91.12,0,.19-.16.3-.24.57-.44,1.12-.89,1.71-1.33A7.49,7.49,0,0,1,45.91,71.65Zm-1.76-1.82a.89.89,0,0,1-.95,0c1-1,5.44-2,8.91-2C52,67.9,52,68,52,68A29,29,0,0,0,44.15,69.83Zm12-.84a3.69,3.69,0,0,1,2,1.23c-1-.3-1.75-.59-2.54-.79a18.78,18.78,0,0,0-2.46-.49c-.8-.11-1.62-.13-2.57-.2.2-.11.27-.18.32-.16.91,0,1.73-.18,2.61-.11A13.7,13.7,0,0,1,56.17,69Zm1.59-2.07c.55.09,1.11.18,1.36.77-1.59-.24-3-.41-4.46-.65a2.61,2.61,0,0,0-1.73.16,4,4,0,0,1-2.38,0,3,3,0,0,1,.5-.34,2.06,2.06,0,0,1,.57-.11A29.49,29.49,0,0,1,57.76,66.92ZM49,66.06c.26-.37.48-.69.73-1,0-.06.16-.14.21-.13.93.23,1.13-.68,2.13-.3C51.34,65.87,50.82,66.24,49,66.06Zm6.79-1.76a5.35,5.35,0,0,1,1,.12v.16c-1.32.2-2.64.41-4,.64a1.29,1.29,0,0,1-.16-.09c.2-.17.37-.35.59-.51a.73.73,0,0,1,.34-.13C54.39,64.42,55.1,64.33,55.83,64.3Zm3.72-2.68c0,.21.12.37.05.41a3.77,3.77,0,0,1-1.79.16A4.06,4.06,0,0,1,59.55,61.62Zm-2.56,0c0,.55-1.64,1-2.87.86A5.82,5.82,0,0,1,57,61.62Zm-2.74,1.53c.07.38-.32.54-.72.68a3.48,3.48,0,0,1-2,0A2.86,2.86,0,0,1,54.25,63.15Zm-1-2c-.16.56-.89.41-1.44.43A1.87,1.87,0,0,1,53.28,61.1ZM47,64a13.23,13.23,0,0,1,5.12-2.09l.2.14a2.67,2.67,0,0,1-.66.39,13.16,13.16,0,0,0-3.85,2,5.24,5.24,0,0,1-1.16.46A.8.8,0,0,1,47,64Zm1.86,1.24c-.07.49-.09.93-.73,1.18C47.86,65.74,48,65.49,48.86,65.22Zm-2.21.84c.5.77.17,1.07-1.24,1.07C45.74,66.65,45.63,66.06,46.65,66.06Zm3,1c.18.29,0,.41-.3.47l-4,.73A12,12,0,0,1,49.68,67ZM45,65.63c.66.81,0,1.29,0,1.82,0,.27-.33.4-.92.34A2.81,2.81,0,0,1,45,65.63Zm-2.16-4.31c-.09-.41-.16-.82-.25-1.23,1.48.26,2,.53,1.93,1.17C44,61.26,43.43,61.28,42.79,61.32Zm2,1.17-.25-.09c0-.26,0-.53-.07-.89l1.19.38C45.29,62.16,45,62.33,44.79,62.49Zm1.93-1.37L46.36,61c0-.25-.11-.5-.16-.8l1.36.21Zm-.41-1.28-.22-.13V59a15.4,15.4,0,0,0,1.54.45c.48.09,1,.07,1.67.13C48.32,60,47.15,59.53,46.31,59.84Zm14.52-3c-1.32,1.23-6.74,3.12-9.92,2.64a5.28,5.28,0,0,1,.79-.28,38.22,38.22,0,0,0,7.54-2.34A2.17,2.17,0,0,1,60.83,56.8ZM50.34,55.64a71.2,71.2,0,0,0,9.26-2.39,20.53,20.53,0,0,0,6.87-3.82A1.59,1.59,0,0,1,67.59,49c0,.73-1.46,1.76-5.19,3.76a37.88,37.88,0,0,1-6.74,2.68,24.93,24.93,0,0,1-8.12,1.19,1,1,0,0,0,1,.41c1-.1,2-.21,3-.35a33.81,33.81,0,0,0,7.63-2.14c.68-.25,1.3-.56,2-.82.25-.09.52-.16.88-.29,0,.37-.29.52-.54.64a19,19,0,0,1-2.78,1.27c-2.19.68-4.42,1.34-6.73,1.89a17.07,17.07,0,0,1-5.1.55c-.18.25,0,.41.3.49a3.6,3.6,0,0,0,1,.08c1-.05,2-.16,3-.25a1,1,0,0,0,.55-.14c.39-.41,1.14-.44,1.78-.6A40.45,40.45,0,0,0,61,54.86c.5-.23.94-.52,1.41-.77.14-.07.3-.12.57-.23,0,.43-.29.61-.63.75a27.49,27.49,0,0,1-8.51,3.62,2.62,2.62,0,0,1-.57.12c-1.68.17-3.34.31-5,.45a2.92,2.92,0,0,1-1.95-.39c-.14-.09-.32-.25-.32-.36,0-.75.16-1.5.27-2.3A8.75,8.75,0,0,0,50.34,55.64Zm14-15c1.77-.4,3.34-1,5-1.54l1-.28c-2.07,1.78-13.92,4.44-16.52,3.6-.06-.43.3-.75.55-1.09A26.6,26.6,0,0,0,64.31,40.66ZM51.37,44.54c-1,1.4-2.1,2.77-3.12,4.18a7.85,7.85,0,0,0-1.14,1.91,23.46,23.46,0,0,0-1.64,6.53c0,.12-.11.23-.32.36a2.2,2.2,0,0,1-.18-.43c0-.14,0-.27,0-.41a9.16,9.16,0,0,1,1.52-6.3,2.76,2.76,0,0,0,.37-.8,7.38,7.38,0,0,1,1.61-2.75c.48-.61.66-1.32,1.07-1.95,1-1.58,2.14-3.15,3.19-4.74.5-.75.91-1.52,1.39-2.27s1-1.34,1.41-2c.75-1.34,1.43-2.71,2.14-4.09.36-.68.66-1.35,1-2,.68-1.15.54-2.47.75-3.7.18-1,.2-2,.34-3a17,17,0,0,1,.38-1.72c.09-.39.16-.78.25-1.17l.25,0c0,.77-.07,1.52-.06,2.29a22.89,22.89,0,0,1-.6,5c-.18.78-.52,1.53-.73,2.32s-.31,1.41-.49,2.1a25.88,25.88,0,0,1-2,4.5A46.22,46.22,0,0,1,51.37,44.54Zm17.47-7.08L70,37.19l.14.13c-.23.12-.44.25-.69.37a13.15,13.15,0,0,1-3.88,1.13c-1.49.21-3,.43-4.49.62a1.4,1.4,0,0,1-.45,0L62.56,39Z"/>
  <path class="cls-1" d="M48.89,12.14l.06,0,0,0Z"/>
  <path class="cls-1" d="M74.57,16.85l0,0,0,0Z"/>
  <path class="cls-1" d="M38,19.48c.29.21.5.46.77.67A79.37,79.37,0,0,0,52.32,29c1.19.63,2.53,1.11,3.8,1.66.34.14.7.25,1-.09a39,39,0,0,1-8.18-3.83A59.77,59.77,0,0,1,41.79,22a9.66,9.66,0,0,1,1.32.73A68.49,68.49,0,0,0,51,27.4c1.58.8,3.24,1.53,4.88,2.26a14.36,14.36,0,0,0,1.4.47c-.16-.48-.15-.5-.61-.66a54.86,54.86,0,0,1-9.44-4.53,76.44,76.44,0,0,1-7.8-5.36c-.87-.67-2-1.32-2.17-2.33C36.69,18.1,37.06,18.8,38,19.48Z"/>
  <path class="cls-1" d="M72.84,44,71,44.65a2.85,2.85,0,0,0-.3.16l-3,1.93c-.18.12-.27.3-.48.39-.66.29-1.38.54-2.06.82a30.44,30.44,0,0,1-5.85,1.72c-2.5.5-5.14.82-7.72,1.19a7.28,7.28,0,0,1-2.75,0,2.3,2.3,0,0,0-.55.06.94.94,0,0,0,.83.39,10.58,10.58,0,0,0,1.49,0c2.4-.32,4.79-.66,7.19-1,.66-.09,1.28-.2,1.92-.3a8,8,0,0,1-2.58,1.09c-1,.24-1.9.51-2.89.71a26.37,26.37,0,0,1-3.16.5c-1,.09-2.16,0-3.43.05a2.76,2.76,0,0,0,1.18.38,15.73,15.73,0,0,0,4.69-.41,40.9,40.9,0,0,0,8.24-2.48C63.83,49,66,48,68.11,47.17a9.63,9.63,0,0,1,1.23-.31,5.55,5.55,0,0,1,.73-.67c.48-.34,1.07-.61,1.52-1a15.29,15.29,0,0,0,1.24-1.17h0l.07-.11-.09.08Z"/>
  <path class="cls-1" d="M33.34,27.2l1.53,1.25c.29.25.57.47.52.79-.09.55.3,1.08.85,1.6A33.61,33.61,0,0,0,41.6,34.7,50,50,0,0,0,51.09,39c.28.09.59.13,1,.22a2.06,2.06,0,0,0-1.3-.75A47.38,47.38,0,0,1,39,32.68c-1.07-.75-2-1.59-2.93-2.39-.32-.27-.57-.59-.28-.95a3.32,3.32,0,0,1,.57.29c.44.32.84.68,1.28,1a69.57,69.57,0,0,0,6.93,4.53,25.7,25.7,0,0,0,7.61,3.34c0-.32-.33-.49-.71-.63-.71-.27-1.43-.52-2.14-.77-.39-.16-.82-.28-1.2-.46a70.52,70.52,0,0,1-12.77-8.17c-.75-.59-1.6-1.16-2.4-1.72h0l-.06,0a.43.43,0,0,1,0,.07A3.72,3.72,0,0,0,33.34,27.2Z"/>
  <path class="cls-1" d="M47.31,45.33c-1.31-.66-2.64-1.28-3.93-2a63.61,63.61,0,0,1-8.64-5.55c-.73-.55-1.39-1.14-2.08-1.73a.6.6,0,0,0,.12.46c.11.18.23.36.32.54a3.21,3.21,0,0,0,.47.87,13.33,13.33,0,0,0,1.51,1.36,68,68,0,0,0,11.1,6.76,11.11,11.11,0,0,0,1.22.5,1.75,1.75,0,0,1,.19-.2c-2.1-1.12-4.28-2.19-6.3-3.37a37.61,37.61,0,0,1-5.71-3.94,72.25,72.25,0,0,0,12.24,6.85C48,45.54,47.56,45.45,47.31,45.33Z"/>
  <path class="cls-1" d="M33.66,30.79a2.13,2.13,0,0,1,.14-.38,2.65,2.65,0,0,1,.27.11,52.85,52.85,0,0,0,6.71,4.84,44,44,0,0,0,6.08,3.14c1.32.53,2.59,1.14,3.87,1.71a3.5,3.5,0,0,0,.55.16c-.1-.48-.64-.7-1.08-.89-.9-.41-1.86-.75-2.77-1.14a53.72,53.72,0,0,1-12-7.11,9.71,9.71,0,0,1-2.73-2.78,4.55,4.55,0,0,0,.38.93c.08.18.25.39.19.53C33.16,30.24,33.44,30.5,33.66,30.79Z"/>
  <path class="cls-1" d="M76.14,30.52l-.07,0a.25.25,0,0,0,0,.09Z"/>
  <path class="cls-1" d="M70.68,33.91c-.36.18-.7.38-1.07.54a24.92,24.92,0,0,1-6.75,1.69,20.61,20.61,0,0,1-4.63.27s-.06.07-.13.14a1.48,1.48,0,0,0,.52.23,7.12,7.12,0,0,0,1.46,0c1.21-.14,2.39-.34,3.6-.48a20,20,0,0,0,6.89-2c1.89-1,3.52-2.22,5.23-3.34a.75.75,0,0,0,.23-.37c-1.77.89-3.52,1.8-5.32,2.71C71.09,33.55,71,33.75,70.68,33.91Z"/>
  <path class="cls-1" d="M37.08,23.35a53.34,53.34,0,0,0,7.73,5.37,73.55,73.55,0,0,0,9.31,4.67c.38.15.79.24,1.18.36a1,1,0,0,0,.09-.18c-1.88-.85-3.78-1.64-5.59-2.55s-3.6-1.89-5.31-2.91-3.38-2.09-5-3.17a32.09,32.09,0,0,1-4.25-3.48A8.58,8.58,0,0,0,37.08,23.35Z"/>
  <path class="cls-1" d="M38.19,36.23c.34.18.68.34,1,.54a82.34,82.34,0,0,0,9.38,4.76,2.2,2.2,0,0,0,1.41.23,6.75,6.75,0,0,0-.69-.41c-1.75-.78-3.52-1.53-5.21-2.35a44.71,44.71,0,0,1-7.85-4.79c-.79-.58-1.43-1.26-2.15-1.9-.16.32.2.62.5.91.58.51,1.18,1,1.79,1.51s1.23,1,1.85,1.48C38.22,36.21,38.21,36.19,38.19,36.23Z"/>
  <path class="cls-1" d="M76,24.62a56.31,56.31,0,0,1-6.74,3.55A23.65,23.65,0,0,1,61,30c-.18,0-.36.07-.61.11a1.85,1.85,0,0,0,1.5.19,34.54,34.54,0,0,0,5.3-1,29.22,29.22,0,0,0,6.13-2.77c1-.57,2-1.16,2.91-1.73A.64.64,0,0,0,76,24.62Z"/>
  <path class="cls-1" d="M67,18.07a12.48,12.48,0,0,1-4.78,2.58c-.07,0-.07.11-.11.16.91.09,2.11-.32,3.78-1.49,1.91-1.34,3.84-2.72,4.07-4.8a.7.7,0,0,0-.16.14,3.37,3.37,0,0,1-1.35,2.16C67.9,17.23,67.49,17.67,67,18.07Z"/>
  <path class="cls-1" d="M61.9,20.15c2.84-.28,7.16-4.58,6.78-6.53C67.68,16.48,65.36,18.6,61.9,20.15Z"/>
  <path class="cls-1" d="M62,18.83c1.8-.19,2.58-1.14,3.51-1.92,1.61-1.43,2.16-2.71,1.61-3.62,0,1.35-.88,2.24-1.73,3.19A9,9,0,0,1,62,18.83Z"/>
  <path class="cls-1" d="M72.21,39.82c1-.4,2-.77,3-1.15a1.49,1.49,0,0,1-.14-.12q-1.5.59-3,1.14Z"/>
  <path class="cls-1" d="M74.12,27.51l0,0h0a0,0,0,0,0,0,0l0,0,0,0Z"/>
  <path class="cls-1" d="M74.09,27.53c-.9,0-1.26.48-1.81.8A5.78,5.78,0,0,0,74.09,27.53Z"/>
  <path class="cls-1" d="M79,24c.23.46-.45.61-.5,1a1.49,1.49,0,0,0,1.05-1.06A1.14,1.14,0,0,0,79,24Z"/>
  <path class="cls-1" d="M74.17,27.5l1.86-1s-.12-.09-.18-.12c-.44.23-.92.46-1.35.71A1,1,0,0,0,74.17,27.5Z"/>
  <path class="cls-1" d="M77.26,29.63c.43,0,.79-.09.43-.48Z"/>
  <path class="cls-1" d="M74.52,19.17l.19.09c.18-.19.36-.41.54-.6a.68.68,0,0,0-.22-.09Z"/>
  <path class="cls-1" d="M72.61,45.74l.16.07.55-.44-.2-.08Z"/>
  <path class="cls-1" d="M44.45,15.18l0,0v0Z"/>
  <path class="cls-1" d="M43.7,14.68l.73.48C44.35,14.92,44.19,14.73,43.7,14.68Z"/>
  <path class="cls-1" d="M74.6,16.85v0s0,0,0,0Z"/>
  <path class="cls-1" d="M74.6,16.85c.16-.28.29-.56.45-.82A.69.69,0,0,0,74.6,16.85Z"/>
  <path class="cls-1" d="M48.27,11.45l-.21.09.74.48Z"/>
  <path class="cls-1" d="M48.93,12.11,48.8,12l.09.11Z"/>
  <path class="cls-1" d="M72.93,44l.57-.48-.18-.08Z"/>
  <path class="cls-1" d="M78.44,24.92c-.32.2-.65.39-1,.58A1.19,1.19,0,0,0,78.44,24.92Z"/>
  <path class="cls-1" d="M77.37,25.51l0,0,.08,0h0l0,0Z"/>
  <path class="cls-1" d="M76.57,22.21l0,0,0,0S76.57,22.21,76.57,22.21Z"/>
  <path class="cls-1" d="M77,21.56c-.13.21-.28.41-.42.61a1,1,0,0,0,.64-.52A.68.68,0,0,1,77,21.56Z"/>
  <path class="cls-1" d="M61.08,62.4a2.85,2.85,0,0,0,.39.11,1.77,1.77,0,0,0,.32,0,.43.43,0,0,0,0-.05c-.22-.06-.45-.09-.68-.15C61.1,62.35,61.08,62.37,61.08,62.4Z"/>
  <path class="cls-1" d="M76.73,30.09l-.6.4C76.54,30.51,76.69,30.35,76.73,30.09Z"/>
  <path class="cls-1" d="M76.13,30.49h0Z"/>
  <path class="cls-1" d="M40.43,16.65l.06.08a0,0,0,0,1,0,0l0,0v0Z"/>
  <path class="cls-1" d="M39.88,16.18c.19.15.37.31.55.47-.12-.19-.25-.36-.37-.53Z"/>
  <path class="cls-1" d="M73.78,37.7l.9-.43A1,1,0,0,0,73.78,37.7Z"/>
  <path class="cls-1" d="M74.73,37.25l0,0h.07Z"/>
  <path class="cls-1" d="M73.71,37.73l0,0,0,0Z"/>
  <path class="cls-1" d="M77.57,21.26l.62-.57C77.89,20.8,77.57,20.92,77.57,21.26Z"/>
  <path class="cls-1" d="M77.83,20.07c.13.21.24.41.36.62C78.07,20.48,78.46,20.26,77.83,20.07Z"/>
  <path class="cls-1" d="M77,26a3.83,3.83,0,0,1,.36-.44l-.59.3Z"/>
  <path class="cls-1" d="M32.62,26.2l-.21.06.51.43C32.81,26.53,32.72,26.36,32.62,26.2Z"/>
</svg>
