<?xml version="1.0"?>
<svg xmlns="http://www.w3.org/2000/svg" id="Gallery_World_Of_Trees" viewBox="0 0 100 100">
  <defs>
    <style>.cls-1{fill:#fff;}</style>
  </defs>
  <title>Artboard 1</title>
  <path class="cls-1" d="M82.52,57.26l-.72-1.5c.82.22-.19-1.3-.19-1.3-.68-.68-.84,0-.88-.54-.07-1.1-1.53-2.26-1.2-1.7a8.07,8.07,0,0,1-.45-1,2.48,2.48,0,0,1-.76-.86.34.34,0,0,0-.14-.12L78,49.07a2.42,2.42,0,0,0,.76.37c.21,0,.17,1.13.5,1.79a6,6,0,0,0,.47.84l-.08-2.42a1.45,1.45,0,0,1,.66,1,7.06,7.06,0,0,0,.92,2l-.49-2.28.74.86s.18,1,.66,1-.31-1.46-.31-1.46a16.08,16.08,0,0,0-1.65-2.69,16.41,16.41,0,0,0-4.58-3l0-.35s-.25-1.35-1-1.76l-.06-.27.18-.37a.85.85,0,0,1,.54.37,5,5,0,0,1,.51,1.48l.52-1.56.61.68s-.16.8.17,1.13.31-.19.38-.56h.2c.09.35.21.83.3,1.26.19.81.12-1.8.12-1.9h0l.44,1.3a1.24,1.24,0,0,0,.53,1l-.29-2.1.8,1.34c.6.69.35-.44.35-.44l.8,1.34c1.09.41-.43-2.1-.43-2.1l-.8-.86c.41,0,.91-.58.23-.93a1.31,1.31,0,0,0-1.3,0C78,41.16,75.59,40,75.59,40c-.46,0-.48-.76-.78-.64a4.1,4.1,0,0,0-.66-2c.51,0,.94.06,1,.24.34.5.74,1,.74,1l-.44-1.48.21-.31s.27.17.6,1a1.77,1.77,0,0,0,.94,1l-.57-2,.69.37s.46,1,.93,1.19-.45-1.64-.45-1.64l.61.84c.54.52.48-.3.48-.3l-1.19-2-1.84-.94c-.82-.37-3.24-3.44-3.24-3.44a2.83,2.83,0,0,1-.09-.62l1.2.23.39-1.58a12.32,12.32,0,0,1,.64,1.66.91.91,0,0,0,.74.7l-.37-1.95s.28.35.74,1,.88.7.88.7l-.72-1.49a7.24,7.24,0,0,0,1.09.4c.76.22.43-.6.08-.46s-1-.72-1-.72-.66-1.33-1.34-1.54-2-2.22-2-2.22a17.48,17.48,0,0,1-1-4.27,11.63,11.63,0,0,0-.45-3.07L71,21.13,70.65,23c-.82,1.69-2.53,5.16-2.92,5.29a4.69,4.69,0,0,0-1.17,1.17l-.35-1.05a12.83,12.83,0,0,0-2.57-1.64c-.72-.27-2.59-2.86-3.68-4.44a8,8,0,0,0-.2-1.83c.49.3,1.21.84,1.21,1.52,0,1,1.85.29,1.85.29l-.76-1.51s1,.39,1.33.58a1.94,1.94,0,0,0,.83.18,9.63,9.63,0,0,0-2.06-1.89c-.45-.14-2.4-3.35-3.33-4.93L58.42,13l-.56-3.1a9.34,9.34,0,0,0-.51,2.87c.12,1-1.17,4-1.17,4S54.74,18.6,54,18.79s-1.54,1.42-1.54,1.42-.68.78-1.09.66-.76.65.1.45A6.67,6.67,0,0,0,52.65,21v0l-.8,1.35a1.58,1.58,0,0,0,1-.67c.53-.62.84-.93.84-.93l-.41,1.81a1,1,0,0,0,.84-.64,12,12,0,0,1,.74-1.54l.45,1.46,1.38-.22a1.82,1.82,0,0,1-.12.57S53.85,25,52.91,25.37l-2.1.88-1.36,1.87s-.06.74.56.27l.68-.78s-1,1.7-.5,1.52S51.26,28,51.26,28l.77-.35-.64,1.83a1.84,1.84,0,0,0,1.07-.95,2.24,2.24,0,0,1,.68-.94l.26.29-.51,1.37a12.43,12.43,0,0,0,.84-.94,1.94,1.94,0,0,1,1.21-.23,3.33,3.33,0,0,0-.76,1.83c-.33-.12-.35.56-.9.58,0,0-2.72,1-3.17,1.68a1.78,1.78,0,0,0-1.5-.06c-.78.35-.22.89.27.87l-.91.8s-.3.41-.57.85A3.28,3.28,0,0,1,47,33.2a5.08,5.08,0,0,0-.52-2.12l-.59,2.29-.43,1.31c-1,1.17-3,3.54-3.42,3.66a9.56,9.56,0,0,0-2.12,1.4,2.26,2.26,0,0,0,.85-.14c.37-.15,1.35-.44,1.35-.44l-.78,1.13s1.89.54,1.9-.22c0-.5.74-.91,1.25-1.13a4.2,4.2,0,0,0-.19,1.37c-1.13,1.18-3,3.11-3.78,3.31a14.24,14.24,0,0,0-2.63,1.2l-.25.54-.12,0c-.78-.27-2.78-2.86-4-4.44A7.18,7.18,0,0,0,33.32,39c.53.29,1.29.84,1.31,1.52,0,1,2,.29,2,.29l-.81-1.52s1,.39,1.42.59a2.15,2.15,0,0,0,.89.17,10.31,10.31,0,0,0-2.22-1.89c-.48-.13-2.59-3.35-3.6-4.92l-.45-1.77-.6-3.1a8.49,8.49,0,0,0-.54,2.86c.11,1-1.27,3.95-1.27,3.95s-1.56,1.87-2.39,2.07-1.66,1.42-1.66,1.42-.74.78-1.17.66-.82.64.1.45a8.71,8.71,0,0,0,1.29-.35s0,0,0,0l-.85,1.32a1.77,1.77,0,0,0,1.09-.66c.56-.62.89-.94.89-.94l-.44,1.82a1.08,1.08,0,0,0,.91-.65,12.38,12.38,0,0,1,.8-1.53l.47,1.46L30,40.11a1.82,1.82,0,0,1-.12.57s-3,2.84-4,3.19l-2.26.87-1.46,1.87s-.06.74.6.28l.74-.78S22.38,47.8,23,47.63s1.15-1.11,1.15-1.11l.83-.35L24.25,48a2,2,0,0,0,1.15-1,2.07,2.07,0,0,1,.74-.93l.27.29-.54,1.36s.48-.46.89-.93a2.18,2.18,0,0,1,1.31-.24c-.29.51-.86,1-.82,1.83-.35-.11-.37.57-.95.59,0,0-2.94,1.05-3.43,1.67a2.06,2.06,0,0,0-1.62-.06c-.83.36-.23.9.3.88l-1,.8s-1.87,2.34-.52,2L21,53s-.31,1,.45.43l1-1.25-.35,1.95a1.15,1.15,0,0,0,.64-.94L23.26,52s-.08,2.53.13,1.77.55-1.67.55-1.67.14,1.32.55,1,.21-1.05.21-1.05l.74-.65.64,1.46a4.61,4.61,0,0,1,.64-1.38,1.2,1.2,0,0,1,.67-.33l.21.33-.06.24a2.52,2.52,0,0,0-1.28,1.63l0,.31a20.61,20.61,0,0,0-5.63,2.81,14.31,14.31,0,0,0-2,2.49s-1,1.38-.37,1.36.81-.93.81-.93l.92-.8-.61,2.12a5.65,5.65,0,0,0,1.13-1.85c.06-.6.82-.93.82-.93l-.1,2.24a6,6,0,0,0,.57-.78c.41-.63.37-1.66.62-1.68a4.46,4.46,0,0,0,.92-.35l-.22,1.11a.26.26,0,0,0-.17.1,2.81,2.81,0,0,1-.94.8,6.07,6.07,0,0,1-.54.91c.43-.52-1.38.57-1.48,1.58-.06.52-.26-.14-1.09.51,0,0-1.25,1.4-.24,1.2L17.75,65S15.9,68,16.58,68s1.13-1.56,1.13-1.56-.29,1.21.39,1.33,1.3-1.71,1.3-1.71l1-1.52v0c-.06.23-.65,2.68,0,2.51s.27-2.24,1-2.59A6.57,6.57,0,0,0,23,63.34s-.51,2.41-.12,1.79,1.27-2.9,1.69-2.92-.4,3.29,1.21.68a13.18,13.18,0,0,0,1.11-2l1.21.35c.06.18.11.37.17.55l-.85.64s-.22-.08-.28.57-.46.7-.46.7a3.75,3.75,0,0,1-.31.91c.31-.56-1,.76-1.33,1.13a5.3,5.3,0,0,0-.89.45,3.21,3.21,0,0,0-.49,1.09c-.18.18-.35.33-.49.45a3.88,3.88,0,0,0-1.81.86l-1.56,2.21L18.41,72.2s-1.38,3,.57,1l1-1.67.76.13-1.19,1.68s-1.5,2.51.72.25a8.05,8.05,0,0,0,1.23-1.79l.83-.53c-.46,1.17-1,2.77-.75,2.87s1-1.91,1-1.91-.39,1.67,0,2,.62-2,.62-2l.22-.22a3.13,3.13,0,0,0,.42.63c0,.64.06,1.3.3,1.28.44-.06.68-2.65,1.2-2.9l0,0a6,6,0,0,0,.45,1.77c-.33,1.44-.86,4-.62,4.13s.7-2.4.7-2.4-.28,2.11,0,2.59.78-2.62.78-2.62l.6-2.46s-.43,3-.1,2.9.37-1.85.76-2.16.25,0,.25,0-.05,2.4.2,1.42c.13-.54.27-1.5.41-2.22L29.1,73l.16-.06c.07.83.21,1.19.7-1.07.39-1.81.48-2.38.48-2.38l.24-.09L31,72.78s0,3.8.19,5.78S30.4,89,30.4,89c.25.13.47.24.67.32.07.34.3.8,1.07.56a.86.86,0,0,0,.42-.34,1.37,1.37,0,0,0,.94-1.24s-.49-7.17-.39-7.85-.51-7.77-.51-7.77l0-1.15c.58,1.21.06-2.29.29-2.29s1,3.29,1.28,4.16S34,70.74,34,70.74A6.28,6.28,0,0,0,35,72.24c.5.41.39,3.54.83,3.73s-.17-3.77-.17-3.77l.74,2.18s.53,2.65,1,2.39.16-2,.16-2S38,77,38.39,77s-1-4.4-1-4.4l-.66-2c.66.2.51-2-.06-2.84a.37.37,0,0,0-.33-.22c0-.17-.08-.29-.08-.29a6.71,6.71,0,0,0,1.66,1c.78.25.5,2.35,1.19,2.45S39,68.13,39,68.13L40,69.55s.74,1.73,1.4,1.56.3-1.35.3-1.35.56,1.46,1.22,1.43-1.36-2.91-1.36-2.91l-.93-1.22a.3.3,0,0,0,.11-.06.5.5,0,0,0,.51-.41c.43.62.31,2.12.89,2.22s0-1.86-.13-2.39l0,0,1,1.32s.74,1.73,1.4,1.56a.44.44,0,0,0,.26-.17,5.57,5.57,0,0,0,0,.69c.1.51-.81,8.51-.81,8.51s.39,1,3.13.66c0,0-.64-9.09-.45-10.57s.18-4.3.18-4.3L47,61.56l.16,0s.09.4.46,1.75c.47,1.69.61,1.42.69.8l.13,0,.27-.79c.12.52.26,1.24.39,1.65.24.72.2-1,.2-1s-.14-.23.23,0,.39,1.56.72,1.6-.09-2.16-.09-2.16l.58,1.81s.45,2.31.74,1.94,0-1.92,0-1.92.35,1.94.66,1.79-.29-2-.6-3.08A3.16,3.16,0,0,0,52,62.7l0,0c.51.19.72,2.12,1.15,2.16.24,0,.28-.47.28-1a2.22,2.22,0,0,0,.38-.46l.2.15s.21,1.77.6,1.5,0-1.52,0-1.52.53,1.54.94,1.42c.25-.07-.3-1.26-.72-2.12l.79.39a6.26,6.26,0,0,0,1.17,1.32c.31.24.54.41.71.52-.21,2.7-.49,5.38-.49,5.38a6.07,6.07,0,0,0,.6.32.65.65,0,0,0,1,.56.73.73,0,0,0,.39-.33c.87-.21.94-1.25.94-1.25s-.47-7.16-.37-7.84c0,0,0-.07,0-.11a3.26,3.26,0,0,0,.76-1.37h0c-.06.27-.21,1.21.25,1.38s1.15-1.68,1.15-1.68l.87-1.53s-.7,2.82-.13,2.7.39-1.73.72-2.39a.48.48,0,0,0,.54.45L63,60.79s-1.68,3.07-1.11,3.11,1-1.52,1-1.52-.31,1.27.23,1.46,1.15-1.67,1.15-1.67l.88-1.54s-.7,2.83-.14,2.71.33-2.38,1-2.65a5.4,5.4,0,0,0,1.35-1,1.87,1.87,0,0,0-.06.31c-.1,0-.18.08-.25.23-.47.94-.61,3.26-.06,3.06l-.55,2.12s-1.15,4.71-.8,4.75.69-2.35.69-2.35-.24,1.91.11,2.18.78-2.59.78-2.59L67.83,65s-.51,4.29-.16,4.07.27-3.58.68-4a7.75,7.75,0,0,0,.9-1.61s-.41,3.81-.16,2.86.84-4.5,1-4.48-.3,4.35.35,2.12l0,1.62S70,73.23,70,74s-.71,12.34-.71,12.34.35,1.52,2.71,1c0,0-.54-13.18-.39-15.34s.16-6.23.16-6.23L72,62.06l.1,0s.1.61.41,2.55c.39,2.46.52,2.07.58,1.15l.12.08.23-1.15c.1.78.22,1.81.33,2.4.22,1,.16-1.54.16-1.54s-.12-.33.21,0,.33,2.26.63,2.31-.08-3.11-.08-3.11l.5,2.65s.39,3.35.65,2.82a10.61,10.61,0,0,0,0-2.8s.31,2.8.56,2.59-.25-2.91-.51-4.46a7.32,7.32,0,0,0,.37-1.91l0,0c.43.27.61,3,1,3.13.19,0,.23-.68.23-1.38a3.69,3.69,0,0,0,.33-.66l.18.23s.17,2.57.5,2.18,0-2.2,0-2.2.45,2.22.8,2-.25-1.83-.62-3.08l.68.56a9.94,9.94,0,0,0,1,1.93c1.81,2.44.59-.27.59-.27l-1-1.81.62-.16.8,1.79c1.58,2.17.45-1.07.45-1.07l-1.11-1.48-1.26-2.39a2.78,2.78,0,0,0-1.64-.95,5,5,0,0,0-.25-.65,5.23,5.23,0,0,0-.37-1,5.91,5.91,0,0,0-.68-.47c.09-1.61-.88-1.91-.63-1.3a4.08,4.08,0,0,0-.52-.84s-.41-.06-.47-.76-.37-.68-.37-.68l-.7-.68c.06-.2.1-.39.15-.61l1-.36c.06.19.27.72.91,2.12,1.31,2.82.65-.76,1-.72s1,2.47,1.36,3.13-.1-1.93-.1-1.93a5.81,5.81,0,0,0,1.29,1.23c.6.37.27,2.57.83,2.78s0-2.65,0-2.72h0l.77,1.64s.51,2,1,1.83.32-1.42.32-1.42.37,1.64.91,1.68S82.52,57.26,82.52,57.26ZM60.16,59.5c-.23-.37-.5-.76-.67-1-.15-2.08-.33-4.31-.33-4.31l0-1.37c.68,1.78.15-2.08.37-2.08s.92,3.29,1.19,4.17-.18-2.67-.18-2.67a6.54,6.54,0,0,0,1,1.5A5.75,5.75,0,0,1,62,56a3.65,3.65,0,0,1-.52.5s-1.73,1.92-.7,1.79l-.22.52Zm2.89-25.19c.16.54.34,1,.45.89a4.61,4.61,0,0,0-.25-1.81l.49.37a8.36,8.36,0,0,0,.83,1.89c.33.28-.21-1.77-.21-1.77l1.13,1a9.38,9.38,0,0,0,.65,1.27,11,11,0,0,0-1.74,1.37l-1.09-.84-2.07-1.56-1-1.4a4.66,4.66,0,0,1-.11-1.89c0,.13,0,.25.07.37a2.5,2.5,0,0,0,.28,1.34l.46-1.73v0l-.11.8a3.16,3.16,0,0,1,.5,1.14c.08.3.12.06.14-.31a.07.07,0,0,0,.06,0c.15,0,.09-.72,0-1.44V32l.21.2L62,33s.64,3,.89,2.53a.07.07,0,0,1,0,0C63.05,35.89,63.07,35.07,63.05,34.31ZM62.12,53.7l.48,1.53-.26.25C62.25,54.58,62.12,53.7,62.12,53.7ZM66.72,38l.37.46L68,37.25c0,.06.06.1.1.1l-.37,1.44a2,2,0,0,0-1,.74l-.15.22-.45-.36.19-.19.3-1Zm-.86,14.32-.49.29a4.83,4.83,0,0,0-.23,1.11c0,.49-.53.21-.53.21a3.73,3.73,0,0,0-.85.28,1.45,1.45,0,0,1,0-.16l-.63-2c.31.09.42-.37.41-1l.26-.32,0,1,1-1c0,.13,0,.26.07.39-.17.61-.08,1,.2.71.07.14.15.23.27.25.29.06.29-.45.2-1a1,1,0,0,1,.47-.31A5.64,5.64,0,0,0,65.86,52.32Zm-1.7-11.8a1.18,1.18,0,0,1,.73.53c.73,1.28,1,.17.21-.9l.87.68c-.43.82-.82,1.67-1,2a6.6,6.6,0,0,0-.21-.63l-.55-.27A3.75,3.75,0,0,0,64.16,40.52Zm4.66.84v0l.08.38-.05,0Zm.64.43c0-.14.06-.28.08-.41a6.33,6.33,0,0,1,0,1.16l-.12-.18A3.44,3.44,0,0,0,69.46,41.79Zm-1,3.21,0,0-.81-.67c.17-.77.32-1.67.32-1.67l.17-.69.05,0,.14.07c-.06.6-.08,1.1,0,1.1s0,0,.06,0c0,.41.06.66.12.35a4,4,0,0,1,.37-1.11l.22.12.17.74a3.39,3.39,0,0,0,.16-.58l.15.08a7,7,0,0,1-.12.71l-.91,1.52Zm-1.82-1.33-.2-.07h0l.27-.28C66.67,43.44,66.65,43.56,66.62,43.67Zm-2.48,6-.72.71A3.63,3.63,0,0,0,63,49.24c-.1-.15-.2-.21-.3-.21,0-.18-.07-.29-.07-.29A6.14,6.14,0,0,0,64.14,49.67Zm1.64-11.16,0,.67-.35-.08A2.12,2.12,0,0,1,65.78,38.51Zm-.87.44-.17-.06.5-.9Zm-.76-1.21-.23.82a1.76,1.76,0,0,1-.9-.73c-.14-.29-.34-.64-.53-1,.65.3,1.3.58,1.77.77A.92.92,0,0,0,64.15,37.74ZM66.47,36A8.82,8.82,0,0,0,66,35l.67.78A1.92,1.92,0,0,1,66.47,36ZM43.69,64.42c.31-.77.94-3,1.18-3s-.32,2.86.38,1.56l0,1s-.15,1.37-.29,2.78l-.23-.35L44.4,66C45.46,66.07,44.14,64.82,43.69,64.42ZM34,52l.5-1.74v0l-.11.8a3.3,3.3,0,0,1,.54,1.15c.08.29.12.06.16-.31a.06.06,0,0,0,0,0c.18,0,.1-.72,0-1.44v-.06l.23.19.25.8a14.57,14.57,0,0,0,.75,2.47l-.55.33-.94-.66-1.13-1.4a4.37,4.37,0,0,1-.13-1.89c0,.14.05.26.09.37A2.46,2.46,0,0,0,34,52Zm21.76,2.75a2.15,2.15,0,0,1-.23-.28l0-.26a2.94,2.94,0,0,0,.49.51l0-.26.07,0c0,.18,0,.33.05.44C55.89,54.72,55.68,54.66,55.77,54.76Zm-19,1.57a10.28,10.28,0,0,0-.56-1c.6.26,1.2.5,1.68.68a1.83,1.83,0,0,0-.65.21c.23-.2,0-.06-.42.17Zm0-3.52a5.23,5.23,0,0,0,.25.69l-.26.16A7.83,7.83,0,0,0,36.81,52.81ZM38,49.75l0,0,.09-.07Zm1.32,2c.22-.06,1.35-.38,2.46-.75-.21.26-.4.51-.54.72a2.56,2.56,0,0,1-1.3.67Zm18.31,2.49v.33l-.39-1.06.36.25Zm-20.3-.94a10.83,10.83,0,0,0-.3-1.46l.53.37s.13.37.3.78Zm17.83-10-.74.6-.7-.69-.2-.06a6.49,6.49,0,0,0,.36-.74l1.1.35C55,43,55.09,43.15,55.15,43.32Zm-5,2.1a2.08,2.08,0,0,0-.19-.29l.29-.29S50.19,45.1,50.14,45.42Zm-.15,3-.06-.17.2-.25a1.21,1.21,0,0,1,.64.25.83.83,0,0,1,.18.19,1.57,1.57,0,0,0-.08.33l-.12.13A1.66,1.66,0,0,0,50,48.46Zm4.11-3.93v0l-.27-.33.28.23A.22.22,0,0,0,54.1,44.53Zm-.22.58a.39.39,0,0,1-.21.12,4.13,4.13,0,0,1-.27.86c.13-.29-.42.26-.85.73-.72-.24-1.37-.42-1.37-.42-.42,0-.53-.32-.72-.42.15-.32.3-.7.46-1,.34.29.67.54.67.54l-.48-.93.11-.22.09-.08a1.51,1.51,0,0,1,.53.46c0,.51,0,.95.44.53a2.09,2.09,0,0,0,.85.41l-.47-1,.17-.29.43.14A3.26,3.26,0,0,0,53.88,45.11ZM39.11,60.63s-.1.24-.2.54q0-.14-.09-.24ZM57,52.3c.19-1,.24-1.31.24-1.31l.14-.05.14,1.83C57.34,52.6,57.16,52.44,57,52.3ZM50.28,40v0l-.09.07a2.66,2.66,0,0,1-.85.8l-.17.35L49,41.09l.12-.2c.37-.62.35-1.66.59-1.67l.09,0A5.49,5.49,0,0,1,50.28,40Zm-1.66.85c-.31-.21-.56-.4-.7-.5a1,1,0,0,1,.23-.49l.5.06Zm-10.28,12c-.06-.24-.11-.41-.11-.41l.45.35Zm-.85,1,0,.66.84-.48a2.11,2.11,0,0,0,.15.19c.12.09.13-.07.1-.33l.14-.08.25-.05c-.59.74-.38,1.41.35.5a1,1,0,0,1,.43-.3c.06.12.14.25.21.38a1.75,1.75,0,0,0,0,.56l-.56.2a2.1,2.1,0,0,0-.27.75c0,.34-.61.16-.61.16l-.24,0-1.16-.83-.75-.53Zm2.59,6.89a6.73,6.73,0,0,0,1.56-.7l-.08.21a.43.43,0,0,0-.31.16,2.38,2.38,0,0,0-.41,1.91,4.73,4.73,0,0,0-1.19-.33,2,2,0,0,1-.27.06C39.54,61.48,39.61,60.8,40.08,60.67Zm16.64-7,0,.1A3.22,3.22,0,0,0,57.63,55c0,.31,0,.72,0,1.17-.3,0-.4.11-.43-.15s-.47-.74-.85-1A6,6,0,0,0,56.72,53.68Zm-16-3.83c.14.07.31-.28.47-.67,0,.57,0,1.17.2.84a.06.06,0,0,0,0,0c.28.39.92-1.87.92-1.87l.25-.6.24-.14v0c-.12.55-.18,1.09,0,1.07l.06,0c0,.29.07.45.13.24a2.39,2.39,0,0,1,.53-.86l-.12-.59v0l.49,1.29a1.53,1.53,0,0,0,.27-1c0-.1.06-.2.1-.3a2.54,2.54,0,0,1-.12,1.41l-1.07,1L40.92,50.9l-1.62.89-.06-.06s-.44-.76-1-1.59c.2-.29.37-.57.37-.57l.84-.51.23.09c-.14.43-.35,1.17-.12,1a4.53,4.53,0,0,0,.84-1.33l0,0,.52-.32C40.72,49.19,40.59,49.79,40.7,49.85Zm-1.77-2.69.41.56-.1.13ZM39.75,49l0-.07.07,0Zm-1.44-.18,0-1.14a2.34,2.34,0,0,1,.56.72Zm-1.66-1.2.49-.47.47,1.17.67.52-.62.49a7.89,7.89,0,0,0-.56-.72,2.92,2.92,0,0,0-1.24-.68l-.45-1.34s.08,0,.11-.1Zm6.16,16.06a5,5,0,0,0,1-1.11s-.22,1.18-.28,1.77v0a2.42,2.42,0,0,1-.77-.62Zm8.87-5.74a2.8,2.8,0,0,0-.62-.57.59.59,0,0,1-.54-.52c-.06-.49-.43-.47-.43-.47l-.82-.47.18-.41.29-.06a.71.71,0,0,0,.15.35c.14.14.26-.1.35-.46l.35-.08a11,11,0,0,0,1.08,1.46,3.08,3.08,0,0,0,.67.69c0,.29-.06.54-.07.73C52,57.62,51.47,57.59,51.68,57.91Zm15-27.73c.31-.21,1.15-.64,1.15-.64l-.67,1.63s1.62.78,1.64-.31a2.36,2.36,0,0,1,1-1.63,11,11,0,0,0-.17,2,41.9,41.9,0,0,1-2.51,4.05c-.84-.84-1.87-2-1.87-2a27,27,0,0,0-2-3.16,2.69,2.69,0,0,0-1.17-.68l-.41-1.34s.08,0,.12-.1l1,1.13.47-.47.43,1.17.64.55,0-1.19a2.35,2.35,0,0,1,.58.86,1.27,1.27,0,0,0,.9.68l-.86-2,.59.86a1.78,1.78,0,0,0,.58.55l-.21.29A1.19,1.19,0,0,0,66.64,30.18ZM48.37,34.52s-.27,1,.41.43l.92-1.24-.33,1.94a1.14,1.14,0,0,0,.6-.93l.51-1.23s-.08,2.53.13,1.77.51-1.67.51-1.67.12,1.32.51,1,.19-1.05.19-1.05l.68-.64.61,1.46A4.55,4.55,0,0,1,53.69,33a1,1,0,0,1,.62-.34l.2.34-.06.23a2.53,2.53,0,0,0-1.19,1.63l0,.32a22.63,22.63,0,0,0-4,1.9,12.44,12.44,0,0,1-1.13-.93s-.2-.33-.44-.77Zm-8.6,10.81,0,.88.66-.41.39-.74.09-.1.44.33,1.07-.84a.28.28,0,0,0,.11.08l-.42,1a3.12,3.12,0,0,0-1.19.51c-.24.21-.51.5-.78.79-.21-.15-.59-.42-1-.7a.83.83,0,0,0,.11-.15A2.09,2.09,0,0,1,39.77,45.33Zm-1.21.29.59-.64-.52.88-.2-.12Zm6.19,22.31,0,.12v0Zm9.17-7.69a2,2,0,0,0-.29-.44,3,3,0,0,0-.43-.69,6.33,6.33,0,0,0-.8-.31,1.19,1.19,0,0,0,0-.38,6.92,6.92,0,0,0,.55-2.19h0A6.27,6.27,0,0,0,53,58.61c.18.29.41-.74.57-1.59.32.5.64,1.08.83,1.31.39.47-.1-1.32-.1-1.32a6.61,6.61,0,0,0,1.5.84c.72.25.33,1.77,1,1.91s.11-1.49,0-1.82h0v0L57.7,59l0,.06c0,.35,0,.68.07,1a24.14,24.14,0,0,1-.06,2.81l-.41-.32L55.85,60.9A4.49,4.49,0,0,0,53.92,60.24Zm3.64,4.17-1.12-1.25.72-.09.53.7-.06.73Zm2-3.74c0-.26,0-.54,0-.84a1.68,1.68,0,0,0,.27.34Z"/>
</svg>
