<?xml version="1.0" encoding="utf-8"?>
<!-- Generator: Adobe Illustrator 24.0.3, SVG Export Plug-In . SVG Version: 6.00 Build 0)  -->
<svg xmlns="http://www.w3.org/2000/svg" xmlns:xlink="http://www.w3.org/1999/xlink" version="1.1" id="Layer_1" x="0px" y="0px" viewBox="0 0 100 100" style="enable-background:new 0 0 100 100;" xml:space="preserve">
<style type="text/css">
	.st0{fill:#54595F;}
</style>
<title>Artboard 1</title>
<path class="st0" d="M89.7,69.6c-1.6-9.8-3.8-19.5-5-29.3c-0.7-6.4-3.1-11-8.9-13.8c-4.4-2.1-5.4-5.8-5.3-10.6  c3.6,0,7.1,0.1,10.6-0.1c1.2-0.1,2.2-1.2,3.4-1.9c-1.2-0.6-2.3-1.8-3.4-1.8c-20.7-0.1-41.3-0.1-62,0c-1.1,0-2.3,1.2-3.4,1.8  c1.1,0.6,2.2,1.7,3.4,1.9c2.8,0.3,5.6,0.1,8.5,0.1c0.7,0,1.3,0.1,2,0.3c0.6,5.3-1.7,8.6-6,10.8c-1.4,0.7-2.7,1.6-3.8,2.7  c-1.3,1.5-2.8,3.2-3.2,5c-2.3,11.7-4.3,23.4-6.2,35.1c-0.2,1.3,0.1,2.6,0.8,3.8c2.1,3.3,4.5,6.5,6.7,9.8c1.2,1.8,2.4,2,4.1,0.8  c3.1-2.3,6.4-4.3,9.4-6.7c0.9-0.7,1.1-2.3,1.6-3.5c-1.2,0.1-2.6-0.1-3.6,0.4c-3,1.8-5.8,4-8.9,6.1c-2.1-3-4.1-5.8-6-8.6  c-0.3-0.6-0.4-1.3-0.3-2c-0.1-5.1,4.6-5.8,7.8-8.7c-0.3,1.8-0.7,3-0.6,4.1c0.3,1.3,0.7,2.5,1.2,3.7c0.9-0.9,1.7-1.9,2.4-3  c0.3-0.9,0.6-1.8,0.6-2.8l3.8,0.3c-0.2-1.3-0.4-2.6-0.7-3.9c-0.5-1.3-1.8-2.6-1.7-3.8c0.3-2.9,0.8-5.7,1.4-8.5l4,0.2  c-0.1-1.2-0.3-2.4-0.6-3.6c-0.5-1.5-2-2.9-1.9-4.3c0.3-2.9,0.8-5.9,1.5-8.7l3.9,0.3c0-1,0.3-2.5-0.2-3c-3.6-3.7-1.9-7.6-1-11.7h13.9  c1.2,5.9,0.6,10.9-4.7,14.5c-1.4,1-2.6,2.2-3.5,3.6c-0.8,1-1.3,2.3-1.4,3.6c-0.1,12.2-0.1,24.4,0,36.6c0,1.3,0.5,2.6,1.4,3.6  c2.7,2.9,5.6,5.6,8.4,8.5c1.5,1.5,2.8,1.5,4.3,0c2.6-2.6,5.3-5,7.7-7.8c1.2-1.4,1.9-3.1,2-4.9c0.2-8.7-0.4-17.4,0.2-26  S61,32.4,53.6,27.4c-0.8-0.6-1.4-1.5-1.6-2.5c-0.2-2.9-0.1-5.8-0.1-8.7h14.3c0.3,3.8,2.8,7.4-0.6,11c-0.8,0.8-0.7,2.4-0.9,3.6h4  c1.9,7,1.9,7.5-1.1,14c-0.3,0.8-0.3,1.7,0.2,2.5c0.4,0.4,1.6,0.1,2.4,0c0.4-0.1,0.8-0.5,1.3-0.8c0.4,2.1,0.6,3.8,1,5.5  c0.8,2.9,0.8,5.4-1.3,7.9c-0.7,0.8-0.4,2.3-0.6,3.5l3.8-0.3c0.1,1.2,0.3,2.3,0.7,3.4c0.4,1,1.5,1.6,2.3,2.4c0.4-0.9,1.2-1.8,1.3-2.8  c-0.1-1.6-0.3-3.2-0.6-4.8c2.3,1.7,4.8,2.7,6.1,4.5c1.1,1.6,1.8,4.5,1.2,6.1c-1.3,3.1-3.7,5.7-5.9,8.7c-3.2-2.2-6.1-4.4-9.2-6.3  c-0.8-0.5-2.2-0.2-3.3-0.2c0.3,1.1,0.4,2.5,1.1,3.1c3.3,2.6,6.8,4.9,10.2,7.3c1.5,1.1,2.7,0.8,3.7-0.7c2.4-3.4,4.9-6.8,7.1-10.3  C89.8,72.2,90,70.9,89.7,69.6z M15.9,60.3c0.5-6,0.8-12.2,8.4-14.3C24.1,52.3,23.2,58.1,15.9,60.3z M18.8,44.2  c0.5-6.2,0.9-12.5,8.6-14.7C26.8,35.7,26.4,42,18.8,44.2z M47.9,31.9c0.7,6.2,1.3,12.3-5.8,15.8C41.4,41.5,40.8,35.3,47.9,31.9z   M47.9,48.6c0.6,6.1,1.2,12.2-5.8,15.4C41.4,58,40.8,52,47.9,48.6L47.9,48.6z M58.1,73.3c-0.1,1.2-0.6,2.3-1.3,3.2  c-2,2.4-4.3,4.5-6.9,7.3c-2.6-2.7-4.8-5.1-7-7.4c-1.6-2.1-1.6-5,0-7.1c1.5-1.6,2.9-3.2,4.4-4.8l0.9,0.3c-0.1,1.5-0.1,2.9,0.1,4.4  c0.2,0.9,1.2,1.5,1.9,2.3c0.6-0.7,1.5-1.4,1.7-2.2c0.3-1.4,0.1-2.9,0.4-4.4C54.5,67.4,58.8,68.6,58.1,73.3L58.1,73.3z M57.9,64.1  c-5.9-3.9-6.9-6.5-5.7-15.5C59.1,52,58.7,58,57.9,64.1L57.9,64.1z M52.1,32c5.6,2.9,6.7,6,5.9,16C51.6,43,51.3,42,52.1,32z   M72.7,29.6c7.6,2.1,8.1,8.3,8.5,14.5C75.1,41.9,73.4,38.9,72.7,29.6L72.7,29.6z M75.7,46.1c7.7,2,7.8,8.3,8.4,14.2  C77.8,57.7,75.8,54.4,75.7,46.1L75.7,46.1z"/>
</svg>
